<?xml version="1.0" encoding="utf-8"?>
<!-- Generator: Adobe Illustrator 26.2.1, SVG Export Plug-In . SVG Version: 6.00 Build 0)  -->
<svg version="1.1" id="Camada_1" xmlns="http://www.w3.org/2000/svg" xmlns:xlink="http://www.w3.org/1999/xlink" x="0px" y="0px"
	 viewBox="0 0 255 449" style="enable-background:new 0 0 255 449;" xml:space="preserve">
<style type="text/css">
	.st0{fill:#FEFCF2;}
	.st1{fill:#0096FF;}
</style>
<g>
	<circle class="st0" cx="127.5" cy="127.55" r="127.48"/>
	<g>
		<path class="st1" d="M235.79,60.35c-0.48-0.76-0.96-1.52-1.45-2.28c-0.48-0.73-0.96-1.46-1.45-2.18
			c-3.86-5.66-8.17-11-12.88-15.96c-0.34-0.36-0.69-0.72-1.04-1.07c-0.35-0.36-0.69-0.72-1.04-1.07
			C194.82,14.51,162.82,0.07,127.5,0.07C57.2,0.07,0,57.27,0,127.57c0,24.66,7.04,47.69,19.21,67.22c0.48,0.76,0.96,1.52,1.45,2.28
			c0.48,0.73,0.96,1.46,1.45,2.18c3.86,5.66,8.17,11,12.87,15.96c0.34,0.36,0.69,0.72,1.04,1.07c0.35,0.36,0.69,0.72,1.04,1.07
			c0.08,0.08,0.15,0.16,0.23,0.24l83.81,227.53c0.84,2.27,3,3.78,5.42,3.79c0.01,0,0.02,0,0.02,0c2.41,0,4.57-1.49,5.42-3.75
			l85.74-227.58c23.03-23.08,37.29-54.91,37.29-90.01C255,102.92,247.96,79.88,235.79,60.35z M59.87,196.18l-15.36-26.61
			c3.06-0.48,9-1.77,16.64-5.21c2.16-0.97,4.08-2.02,5.94-3.02c4.49-2.44,8.37-4.54,13.7-4.54c0,0,0,0,0,0
			c3.07,0,7.33,1.8,11.44,3.54c2.39,1.01,4.87,2.06,7.12,2.75c0.93,0.28,2.05,0.55,3.24,0.83c5.94,1.42,14.08,3.36,14.38,10.38
			c0.08,1.96-0.35,3.36-1.34,4.29c-2.28,2.15-7.39,1.63-10.77,1.29l-0.68-0.07c-4.71-0.46-18.56-5.55-18.7-5.6
			c-0.75-0.28-1.58,0.11-1.86,0.86c-0.28,0.75,0.11,1.58,0.86,1.86c0.58,0.22,14.35,5.27,19.42,5.77l0.67,0.07
			c1.55,0.16,3.33,0.34,5.1,0.34c2.95,0,5.92-0.49,7.95-2.41c0.45-0.43,0.83-0.92,1.15-1.45c9.58,1.25,23.1-0.02,31.24-0.79
			c2.01-0.19,3.71-0.35,4.96-0.44c4.09-0.28,9.09,0.16,9.67,3.86c0.67,4.23-1.97,5.63-4.5,6.61l-0.26,0.1
			c-1.92,0.63-50.75,9.94-58.86,9.94c-3.02,0-9.19-1.72-14.64-3.23c-5.22-1.45-9.74-2.71-12.23-2.79c-0.11,0-0.22-0.01-0.33-0.01
			c-0.51,0-1.06,0.05-1.63,0.11c-0.06,0.01-0.12,0.01-0.18,0.02C67.78,193.18,62.27,195.22,59.87,196.18z M85.6,198.11
			c5.9,1.64,12.01,3.34,15.42,3.34c8.52,0,58.19-9.45,59.9-10.14l0.27-0.11c1.83-0.71,7.4-2.88,6.31-9.77
			c-0.5-3.15-3.03-6.74-11.99-6.33c15.55-9.38,25.65-25.94,26.78-44.18l7.16,7.16c0.28,0.28,0.65,0.42,1.02,0.42
			c0.37,0,0.74-0.14,1.02-0.42c0.57-0.57,0.57-1.48,0-2.05l-9.52-9.52c-0.07-0.07-0.14-0.13-0.22-0.18
			c-0.02-0.01-0.04-0.02-0.07-0.04c-0.06-0.04-0.12-0.07-0.18-0.1c-0.03-0.01-0.06-0.02-0.09-0.03c-0.06-0.02-0.12-0.04-0.18-0.06
			c-0.09-0.02-0.19-0.03-0.29-0.03c-0.1,0-0.19,0.01-0.29,0.03c-0.06,0.01-0.12,0.03-0.18,0.06c-0.03,0.01-0.06,0.02-0.09,0.03
			c-0.06,0.03-0.12,0.06-0.18,0.1c-0.02,0.01-0.05,0.02-0.07,0.04c-0.08,0.05-0.15,0.11-0.22,0.18l-9.52,9.52
			c-0.57,0.57-0.57,1.48,0,2.05s1.48,0.57,2.05,0l6.92-6.92c-1.33,19.12-13.07,36.23-30.67,44.26c-0.16,0.07-0.29,0.17-0.41,0.28
			c-7.92,0.74-19.89,1.76-28.56,0.74c0.11-0.71,0.16-1.46,0.12-2.27c-0.4-9.21-10.54-11.63-16.61-13.08
			c-1.14-0.27-2.22-0.53-3.06-0.79c-2.1-0.64-4.4-1.61-6.83-2.65c-4.38-1.85-8.91-3.77-12.57-3.77c0,0,0,0,0,0
			c-6.06,0-10.44,2.38-15.08,4.89c-1.81,0.98-3.69,2-5.75,2.93c-3.29,1.48-6.26,2.55-8.79,3.31c-5.76-11.71-8.7-24.31-8.7-37.48
			c0-46.89,38.14-85.03,85.03-85.03c18.28,0,36.13,5.94,50.73,16.8c-2.42-0.5-5.66-1.4-8.83-2.28c-5.9-1.64-12.01-3.34-15.42-3.34
			c-8.52,0-58.19,9.45-59.9,10.14l-0.27,0.11c-1.83,0.71-7.4,2.88-6.31,9.77c0.47,2.98,2.74,6.37,10.59,6.37c0,0,0.01,0,0.01,0
			c-15.68,9.52-25.76,26.31-26.65,44.8l-7.12-7.12c-0.57-0.57-1.48-0.57-2.05,0s-0.57,1.48,0,2.05l9.52,9.52
			c0.28,0.28,0.65,0.42,1.02,0.42s0.74-0.14,1.02-0.42l9.52-9.52c0.57-0.57,0.57-1.48,0-2.05s-1.48-0.57-2.05,0l-6.97,6.97
			c1.05-19.56,12.94-37.06,30.93-45.17c7.85-0.74,20.77-1.95,29.98-0.87c-0.11,0.71-0.16,1.46-0.12,2.27
			c0.4,9.21,10.54,11.63,16.6,13.08c1.14,0.27,2.22,0.53,3.06,0.79c2.1,0.64,4.4,1.61,6.83,2.64c4.38,1.85,8.91,3.77,12.57,3.77
			c0,0,0,0,0,0c6.06,0,10.44-2.38,15.07-4.89c1.81-0.98,3.69-2,5.75-2.93c3.3-1.49,6.28-2.55,8.81-3.32
			c5.75,11.7,8.68,24.29,8.68,37.44c0,46.89-38.14,85.03-85.03,85.03c-18.25,0-36.05-5.92-50.63-16.73
			C79.28,196.35,82.47,197.24,85.6,198.11z M193.85,90.78c-2.16,0.98-4.09,2.02-5.94,3.03c-4.49,2.43-8.37,4.54-13.69,4.54
			c0,0,0,0,0,0c-3.07,0-7.33-1.8-11.44-3.54c-2.39-1.01-4.87-2.06-7.11-2.75c-0.93-0.28-2.05-0.55-3.24-0.83
			c-5.94-1.42-14.08-3.36-14.38-10.38c-0.08-1.96,0.35-3.36,1.34-4.29c2.28-2.15,7.39-1.63,10.77-1.29l0.68,0.07
			c4.71,0.46,18.56,5.55,18.7,5.6c0.75,0.28,1.58-0.11,1.86-0.86c0.28-0.75-0.11-1.58-0.86-1.86c-0.58-0.22-14.35-5.27-19.42-5.77
			l-0.67-0.07c-4.14-0.42-9.81-0.99-13.05,2.07c-0.45,0.43-0.83,0.92-1.15,1.45c-9.58-1.25-23.09,0.02-31.24,0.79
			c-2.01,0.19-3.71,0.35-4.96,0.44c-4.09,0.28-9.09-0.16-9.67-3.86c-0.67-4.23,1.97-5.63,4.5-6.61l0.26-0.1
			c1.91-0.63,50.75-9.94,58.86-9.94c3.02,0,9.19,1.72,14.64,3.23c5.22,1.45,9.74,2.7,12.23,2.79c0.11,0,0.22,0.01,0.34,0.01
			c4.29,0,11.18-2.56,13.94-3.65l15.36,26.61C207.43,86.05,201.48,87.35,193.85,90.78z M127.5,11.67c31,0,59.2,12.24,80.02,32.13
			l-14.61,8.44c-0.33,0.19-0.58,0.51-0.68,0.88c-0.1,0.37-0.05,0.77,0.15,1.1l1.28,2.22c-2.34,0.91-6.91,2.57-10.42,3.12
			C167.58,46.7,147.8,39.62,127.5,39.62c-48.48,0-87.93,39.44-87.93,87.93c0,13.44,2.95,26.3,8.75,38.27
			c-2.52,0.63-4.37,0.92-5.38,1.04l-1.5-2.59c-0.4-0.69-1.29-0.93-1.98-0.53l-18.09,10.44c-6.29-14.27-9.79-30.03-9.79-46.6
			C11.59,63.66,63.59,11.67,127.5,11.67z M155.97,239.94c-0.24,0.06-0.48,0.12-0.72,0.18c-0.78,0.19-1.57,0.38-2.36,0.56
			c-1,0.22-1.99,0.43-3,0.63c-0.56,0.11-1.12,0.21-1.69,0.32c-1.19,0.21-2.38,0.42-3.58,0.59c-0.33,0.05-0.67,0.09-1,0.14
			c-1.4,0.19-2.81,0.38-4.22,0.52c-0.03,0-0.06,0.01-0.09,0.01c-0.86,0.09-1.72,0.16-2.59,0.23c-0.13,0.01-0.26,0.02-0.39,0.03
			c-0.78,0.06-1.56,0.11-2.34,0.15c-0.21,0.01-0.41,0.03-0.62,0.04c-0.74,0.04-1.49,0.06-2.24,0.09c-0.24,0.01-0.47,0.02-0.71,0.03
			c-0.97,0.02-1.95,0.04-2.93,0.04s-1.96-0.01-2.93-0.04c-0.24-0.01-0.47-0.02-0.71-0.03c-0.75-0.02-1.49-0.05-2.24-0.09
			c-0.21-0.01-0.41-0.03-0.62-0.04c-0.78-0.04-1.56-0.09-2.34-0.15c-0.13-0.01-0.26-0.02-0.39-0.03c-0.86-0.07-1.73-0.14-2.59-0.23
			c-0.03,0-0.06-0.01-0.09-0.01c-26.28-2.69-49.99-14.21-68.11-31.52l14.61-8.44c0.33-0.19,0.58-0.51,0.68-0.88
			c0.1-0.37,0.05-0.77-0.15-1.1l-1.28-2.22c2.35-0.91,6.96-2.58,10.49-3.12c15.65,12.82,35.39,19.88,55.67,19.88
			c48.48,0,87.93-39.44,87.93-87.93c0-13.42-2.94-26.27-8.73-38.23c2.51-0.63,4.35-0.91,5.36-1.03l1.5,2.59
			c0.27,0.47,0.76,0.72,1.26,0.72c0.25,0,0.5-0.06,0.72-0.19l18.08-10.44c6.29,14.27,9.79,30.03,9.79,46.6
			C243.41,181.67,206.16,227.22,155.97,239.94z"/>
	</g>
</g>
</svg>
