<?xml version="1.0" encoding="utf-8"?>
<!-- Generator: Adobe Illustrator 26.2.1, SVG Export Plug-In . SVG Version: 6.00 Build 0)  -->
<svg version="1.1" id="Camada_1" xmlns="http://www.w3.org/2000/svg" xmlns:xlink="http://www.w3.org/1999/xlink" x="0px" y="0px"
	 viewBox="0 0 255 449" style="enable-background:new 0 0 255 449;" xml:space="preserve">
<style type="text/css">
	.st0{fill:#FEFCF2;}
	.st1{fill:#F5C800;}
</style>
<g>
	<circle class="st0" cx="127.5" cy="127.55" r="127.48"/>
	<g>
		<g>
			<path class="st1" d="M61.23,194.06c1.65,0,3.33-0.29,4.97-0.87l33.21-11.41l2.91,15.1c0.01,0.05,0.02,0.1,0.03,0.15
				c0.7,2.81,2.45,5.17,4.94,6.65c1.68,1,3.56,1.51,5.47,1.51c0.91,0,1.83-0.12,2.74-0.35l31.85-8.32
				c5.66-1.48,9.11-7.28,7.72-12.95l-4.18-19.49l35.4-12.17c6.86-0.12,12.73-2.19,16.97-6.43c7.11-7.11,8.37-18.97,3.56-33.4
				c-4.59-13.76-14.21-28.43-27.1-41.32c-12.89-12.89-27.57-22.51-41.32-27.1c-14.43-4.81-26.3-3.55-33.4,3.56
				c-3.73,3.73-5.77,8.71-6.3,14.51L48.14,173.41c-2.49,5.41-1.55,11.5,2.47,15.89C53.45,192.41,57.27,194.06,61.23,194.06z
				 M149.41,184.83c0.01,0.03,0.01,0.06,0.02,0.1c0.66,2.62-0.94,5.31-3.55,5.99l-31.85,8.32c-1.29,0.34-2.63,0.15-3.78-0.53
				c-1.13-0.67-1.93-1.73-2.26-3l-3.05-15.82l40.43-13.9L149.41,184.83z M122.48,46.56c4.16,0,8.9,0.86,14.09,2.59
				c12.92,4.31,26.79,13.44,39.06,25.7c12.27,12.27,21.39,26.14,25.7,39.06c4.08,12.24,3.32,22-2.16,27.47
				c-11.66,11.65-42.12,0.87-66.53-23.54c-24.41-24.41-35.19-54.88-23.54-66.53C112.24,48.15,116.82,46.56,122.48,46.56z"/>
		</g>
		<g>
			<path class="st1" d="M127.5,0.07C57.2,0.07,0,57.27,0,127.57c0,35.11,14.26,66.95,37.3,90.03l83.81,227.53
				c0.84,2.27,3,3.78,5.42,3.79c0.01,0,0.02,0,0.02,0c2.41,0,4.57-1.49,5.42-3.75l85.74-227.58c23.03-23.08,37.29-54.91,37.29-90.01
				C255,57.27,197.8,0.07,127.5,0.07z M127.5,11.67c63.91,0,115.91,52,115.91,115.91c0,54.09-37.25,99.64-87.44,112.37
				c-0.24,0.06-0.48,0.12-0.72,0.18c-0.78,0.19-1.57,0.38-2.36,0.56c-1,0.22-1.99,0.43-3,0.63c-0.56,0.11-1.12,0.21-1.69,0.32
				c-1.19,0.21-2.38,0.42-3.58,0.59c-0.33,0.05-0.67,0.09-1,0.14c-1.4,0.19-2.81,0.38-4.22,0.52c-0.03,0-0.06,0.01-0.09,0.01
				c-0.86,0.09-1.72,0.16-2.59,0.23c-0.13,0.01-0.26,0.02-0.39,0.03c-0.78,0.06-1.56,0.11-2.34,0.15c-0.21,0.01-0.41,0.03-0.62,0.04
				c-0.74,0.04-1.49,0.06-2.24,0.09c-0.24,0.01-0.47,0.02-0.71,0.03c-0.97,0.02-1.95,0.04-2.93,0.04s-1.96-0.01-2.93-0.04
				c-0.24-0.01-0.47-0.02-0.71-0.03c-0.75-0.02-1.49-0.05-2.24-0.09c-0.21-0.01-0.41-0.03-0.62-0.04c-0.78-0.04-1.56-0.09-2.34-0.15
				c-0.13-0.01-0.26-0.02-0.39-0.03c-0.86-0.07-1.73-0.14-2.59-0.23c-0.03,0-0.06-0.01-0.09-0.01c-1.41-0.14-2.82-0.32-4.22-0.52
				c-0.33-0.05-0.67-0.09-1-0.14c-1.2-0.18-2.39-0.38-3.58-0.59c-0.56-0.1-1.13-0.21-1.69-0.32c-1-0.2-2-0.41-3-0.63
				c-0.79-0.18-1.58-0.36-2.36-0.56c-0.24-0.06-0.48-0.12-0.72-0.18c-50.19-12.72-87.44-58.27-87.44-112.37
				C11.59,63.66,63.59,11.67,127.5,11.67z"/>
		</g>
	</g>
</g>
</svg>
