<?xml version="1.0" encoding="utf-8"?>
<!-- Generator: Adobe Illustrator 26.2.1, SVG Export Plug-In . SVG Version: 6.00 Build 0)  -->
<svg version="1.1" id="Camada_1" xmlns="http://www.w3.org/2000/svg" xmlns:xlink="http://www.w3.org/1999/xlink" x="0px" y="0px"
	 viewBox="0 0 255 449" style="enable-background:new 0 0 255 449;" xml:space="preserve">
<style type="text/css">
	.st0{fill:#FEFCF2;}
</style>
<g>
	<circle class="st0" cx="127.5" cy="127.55" r="127.48"/>
	<g>
		<g>
			<path d="M127.01,146.89c-12.98,0-23.53,10.56-23.53,23.53c0,6.29,2.45,12.19,6.89,16.64c0.57,0.57,1.48,0.57,2.05,0
				c0.57-0.57,0.57-1.48,0-2.05c-3.9-3.9-6.04-9.08-6.04-14.59c0-11.38,9.26-20.64,20.64-20.64c11.38,0,20.64,9.26,20.64,20.64
				c0,5.51-2.15,10.69-6.04,14.59c-0.57,0.57-0.57,1.48,0,2.05c0.28,0.28,0.65,0.42,1.02,0.42s0.74-0.14,1.02-0.42
				c4.44-4.44,6.89-10.35,6.89-16.64C150.55,157.45,139.99,146.89,127.01,146.89z"/>
		</g>
		<g>
			<path d="M98.12,120.39v-1.45h-0.29L71.86,66.99c1.95-1.4,3.33-3.55,3.72-6.02h44.98v71.75c-18.03,3.08-31.8,18.81-31.8,37.7
				c0,10.22,3.98,19.83,11.21,27.05c0.57,0.57,1.48,0.57,2.05,0s0.57-1.48,0-2.05c-6.68-6.68-10.36-15.56-10.36-25
				c0-19.5,15.86-35.36,35.36-35.36c19.5,0,35.36,15.86,35.36,35.36c0,9.44-3.68,18.32-10.36,25c-0.57,0.57-0.57,1.48,0,2.05
				c0.28,0.28,0.65,0.42,1.02,0.42c0.37,0,0.74-0.14,1.02-0.42c7.23-7.23,11.21-16.83,11.21-27.05c0-18.89-13.77-34.62-31.8-37.7
				V60.98h45.96c0.39,2.47,1.77,4.61,3.72,6.02l-25.71,51.42h-0.55v1.45c0,17.43,14.18,31.61,31.61,31.61s31.61-14.18,31.61-31.61
				v-1.45h-0.55l0.4,0.8c0.36,0.72,0.07,1.59-0.65,1.94c-0.21,0.1-0.43,0.15-0.65,0.15c-0.01,0-0.03,0-0.04-0.01
				c-0.52-0.01-1.01-0.3-1.26-0.8l-0.32-0.65l-0.72-1.45h-55.64l25.05-50.11c0.87,0.28,1.8,0.43,2.77,0.43
				c0.96,0,1.89-0.15,2.77-0.43l25.05,50.11h3.24l-25.71-51.42c2.32-1.67,3.85-4.39,3.85-7.47c0-5.07-4.13-9.2-9.2-9.2
				c-4.58,0-8.37,3.37-9.07,7.75h-45.96v-2.19c0-3.06-2.9-5.55-6.45-5.55c-3.56,0-6.45,2.49-6.45,5.55v2.19H75.58
				c-0.7-4.38-4.49-7.75-9.07-7.75c-5.07,0-9.2,4.13-9.2,9.2c0,3.07,1.52,5.79,3.85,7.47l-25.97,51.95h-0.29v1.45
				c0,17.14,14.18,31.08,31.61,31.08S98.12,137.53,98.12,120.39z M63.74,68.3c0.87,0.28,1.8,0.43,2.77,0.43
				c0.96,0,1.89-0.15,2.77-0.43l25.32,50.64H38.42L63.74,68.3z"/>
		</g>
		<g>
			<path d="M127.5,0.07C57.2,0.07,0,57.27,0,127.57c0,35.11,14.26,66.95,37.3,90.03l83.81,227.53c0.84,2.27,3,3.78,5.42,3.79
				c0.01,0,0.01,0,0.02,0c2.41,0,4.57-1.49,5.42-3.75l85.74-227.58c23.03-23.08,37.29-54.91,37.29-90.01
				C255,57.27,197.8,0.07,127.5,0.07z M127.5,11.67c63.91,0,115.91,52,115.91,115.91c0,55.39-39.05,101.82-91.07,113.22l5.15-10.31
				c0.27-0.54,0.41-1.14,0.41-1.75v-19.74c0-1.68-1.07-3.17-2.67-3.7l-18.73-6.24c-0.41-0.14-0.69-0.52-0.69-0.95v-27.68
				c0-2.43-1.02-4.77-2.79-6.43c-1.8-1.68-4.14-2.52-6.61-2.36c-4.61,0.3-8.23,4.27-8.23,9.04v43.93c0,0.65-0.48,0.88-0.69,0.95
				c-0.21,0.07-0.73,0.17-1.12-0.35l-4.15-5.52c-1.82-2.7-4.96-4.19-8.21-3.85c-4.08,0.41-7.38,3.66-7.85,7.73
				c-0.24,2.06,0.25,4.14,1.38,5.86l12.06,22.68c-0.25-0.04-0.5-0.09-0.75-0.13c-0.88-0.14-1.76-0.3-2.63-0.46
				c-0.59-0.11-1.18-0.22-1.76-0.34c-0.87-0.17-1.74-0.36-2.6-0.56c-51.62-11.7-90.28-57.94-90.28-113.05
				C11.59,63.66,63.59,11.67,127.5,11.67z M135.59,201.81l18.73,6.24c0.41,0.14,0.69,0.52,0.69,0.95v19.74
				c0,0.16-0.04,0.31-0.11,0.45l-6.17,12.34c-3.07,0.57-6.18,1.03-9.33,1.35c-0.03,0-0.06,0.01-0.09,0.01
				c-0.86,0.09-1.72,0.16-2.59,0.23c-0.13,0.01-0.26,0.02-0.39,0.03c-0.78,0.06-1.56,0.11-2.34,0.15c-0.21,0.01-0.41,0.03-0.62,0.04
				c-0.74,0.04-1.49,0.06-2.24,0.09c-0.24,0.01-0.47,0.02-0.71,0.03c-0.97,0.02-1.95,0.04-2.93,0.04c-0.98,0-1.96-0.01-2.93-0.04
				c-0.24-0.01-0.47-0.02-0.71-0.03c-0.75-0.02-1.49-0.05-2.23-0.09c-0.21-0.01-0.42-0.03-0.62-0.04c-0.78-0.04-1.56-0.09-2.34-0.15
				c-0.13-0.01-0.26-0.02-0.39-0.03c-0.86-0.07-1.73-0.14-2.59-0.23c-0.03,0-0.06-0.01-0.1-0.01c-0.81-0.08-1.62-0.18-2.43-0.28
				L100.08,218c-0.02-0.04-0.05-0.08-0.07-0.12c-0.78-1.18-1.11-2.55-0.95-3.98c0.31-2.73,2.52-4.9,5.26-5.18
				c2.18-0.21,4.3,0.77,5.57,2.65l4.2,5.59c1.03,1.37,2.73,1.9,4.36,1.36c1.62-0.54,2.67-1.99,2.67-3.7v-43.93
				c0-3.25,2.42-5.95,5.52-6.15c1.66-0.11,3.23,0.46,4.44,1.59c1.21,1.13,1.87,2.66,1.87,4.31v27.68
				C132.92,199.79,134,201.28,135.59,201.81z"/>
		</g>
	</g>
</g>
</svg>
