<?xml version="1.0" encoding="utf-8"?>
<!-- Generator: Adobe Illustrator 26.2.1, SVG Export Plug-In . SVG Version: 6.00 Build 0)  -->
<svg version="1.1" id="Camada_1" xmlns="http://www.w3.org/2000/svg" xmlns:xlink="http://www.w3.org/1999/xlink" x="0px" y="0px"
	 viewBox="0 0 255 449" style="enable-background:new 0 0 255 449;" xml:space="preserve">
<style type="text/css">
	.st0{fill:#FEFCF2;}
	.st1{fill:#EF0094;}
</style>
<g>
	<circle class="st0" cx="127.5" cy="127.55" r="127.48"/>
	<g>
		<path class="st1" d="M127.5,0.07C57.2,0.07,0,57.27,0,127.57c0,35.11,14.26,66.95,37.3,90.03l83.81,227.53
			c0.84,2.27,3,3.78,5.42,3.79c0.01,0,0.02,0,0.02,0c2.41,0,4.57-1.49,5.42-3.75l85.74-227.58c23.03-23.08,37.29-54.91,37.29-90.01
			C255,57.27,197.8,0.07,127.5,0.07z M127.5,11.67c63.91,0,115.91,52,115.91,115.91c0,40.64-21.03,76.46-52.78,97.16
			c1.91-7.07,3.73-14.34,5.32-21.49c0.01-0.05,0.02-0.09,0.03-0.14c1.96-8.82,3.57-17.46,4.6-25.33c2.02-15.44,1.6-30.32,0.55-42.59
			c0-0.03-0.01-0.06-0.01-0.1c-0.71-8.22-1.71-15.27-2.45-20.5c-0.33-2.34-0.61-4.32-0.8-5.91h5c4.8,0,8.71-3.91,8.71-8.71V77.49
			c0-0.33-0.11-0.65-0.32-0.9l-6.79-8.5c-0.09-0.58-0.23-1.16-0.42-1.73l-2.6-7.56c-0.65-8.64-26.61-13.3-51.07-13.3
			c-24.46,0-50.42,4.66-51.07,13.3l-2.6,7.56c-0.2,0.57-0.33,1.15-0.42,1.73l-6.79,8.51c-0.21,0.26-0.32,0.58-0.32,0.9v22.48
			c0,0.83,0.12,1.63,0.34,2.4c-9.87,0.33-19,1.43-26.18,3.2c-9.29,2.28-14.11,5.29-14.37,8.96l-2.37,6.88
			c-0.18,0.52-0.3,1.05-0.39,1.57l-6.19,7.75c-0.21,0.26-0.32,0.58-0.32,0.9v20.54c0,4.46,3.63,8.09,8.09,8.09h4.43
			c-0.17,1.43-0.42,3.18-0.71,5.26c-0.68,4.8-1.59,11.25-2.24,18.79c0,0.01,0,0.02,0,0.03c-0.72,8.34-1.11,18-0.51,28.22
			c-22.85-21.18-37.18-51.44-37.18-84.99C11.59,63.66,63.59,11.67,127.5,11.67z M92.08,99.96V77.99l4.47-5.6
			c0.8,2.86,2.81,5.36,5.69,6.66c-0.14,0.25-0.21,0.55-0.18,0.86c0.02,0.15,1.29,13.05,1.2,22.49c-2.45-0.1-4.95-0.15-7.49-0.15
			c-1.08,0-2.14,0.01-3.21,0.03C92.26,101.57,92.08,100.79,92.08,99.96z M99.46,67.28l1.53-4.46c6.19,6.47,28.35,9.91,49.4,9.91
			c21.05,0,43.2-3.45,49.4-9.91l1.54,4.46c1.26,3.66-0.57,7.71-4.16,9.23c-6.79,2.87-13.6,5.11-20.42,6.72v-4.81
			c0-0.8-0.65-1.45-1.45-1.45s-1.45,0.65-1.45,1.45v5.46c-15.61,3.29-31.28,3.29-46.9,0v-5.46c0-0.8-0.65-1.45-1.45-1.45
			c-0.8,0-1.45,0.65-1.45,1.45v4.81c-6.82-1.61-13.63-3.85-20.42-6.72C100.03,74.99,98.2,70.94,99.46,67.28z M204.23,72.4l4.47,5.59
			v21.97c0,3.21-2.61,5.82-5.82,5.82h-5.26c-0.53-9.36,1.08-25.69,1.1-25.86c0.03-0.31-0.04-0.6-0.18-0.86
			C201.41,77.75,203.43,75.26,204.23,72.4z M197.71,177.4c-1.01,7.76-2.54,16.02-4.36,24.35c-18.97,7.03-34.38,9.89-50.45,8.59
			c0.43-9.39,0.04-18.26-0.62-25.99c0-0.03-0.01-0.06-0.01-0.08c-0.65-7.52-1.56-13.97-2.24-18.76c-0.29-2.07-0.54-3.83-0.71-5.26
			h4.43c4.46,0,8.09-3.63,8.09-8.09v-3.99c15.56-0.21,31.11-3.8,46.56-10.78C199.32,149.12,199.59,163.04,197.71,177.4z M105,80.21
			c6.33,2.53,12.68,4.53,19.04,6v18.44c-5.3-1.02-11.38-1.74-17.88-2.11C106.25,93.99,105.25,82.88,105,80.21z M148.94,145.27v2.91
			v3.99c0,2.86-2.33,5.19-5.19,5.19h-4.69c-0.09-1.69-0.11-3.61-0.08-5.62c0.02-1.36,0.07-2.76,0.12-4.14
			c0.04-0.98,0.09-1.96,0.14-2.91c0.32-5.8,0.81-10.73,0.82-10.82c0.03-0.26-0.02-0.51-0.13-0.73c1.05-0.49,1.97-1.15,2.75-1.94
			c1.09-1.11,1.89-2.47,2.34-3.95l3.91,4.89V145.27z M63.34,124.11c8.68,2.13,20.2,3.3,32.43,3.3c1.57,0,3.12-0.02,4.66-0.06
			c0.98-0.02,1.96-0.06,2.93-0.1c6.06-0.25,11.81-0.79,16.98-1.6c0.78-0.12,1.55-0.25,2.3-0.38c1.96-0.35,3.82-0.74,5.57-1.17
			c1.03-0.25,1.99-0.51,2.9-0.78c0.8-0.24,1.57-0.48,2.29-0.73c3.48-1.21,5.98-2.58,7.49-4.09l1.32,3.83
			c1.13,3.28-0.51,6.92-3.74,8.28c-2.7,1.14-5.4,2.17-8.11,3.09c-3.46,1.18-6.92,2.18-10.38,3.01v-3.01v-1.23
			c0-0.8-0.65-1.45-1.45-1.45c-0.8,0-1.45,0.65-1.45,1.45v1.23v3.66c-1.63,0.34-3.27,0.64-4.9,0.9c-1.99,0.32-3.97,0.58-5.96,0.79
			c-1.33,0.14-2.66,0.24-3.99,0.33c-0.97,0.06-1.94,0.11-2.92,0.14c-8.28,0.29-16.57-0.43-24.84-2.16v-3.65v-1.23
			c0-0.8-0.65-1.45-1.45-1.45c-0.8,0-1.45,0.65-1.45,1.45v1.23v3.01c-3.46-0.82-6.93-1.83-10.38-3.01
			c-2.71-0.92-5.41-1.95-8.11-3.09c-3.23-1.36-4.87-5-3.74-8.28l1.32-3.83C52.84,120.7,57.07,122.57,63.34,124.11z M48.86,131.19
			c0.78,0.79,1.7,1.45,2.75,1.94c-0.1,0.22-0.15,0.47-0.13,0.74c0.01,0.12,0.96,9.68,1.09,17.88c0.03,2.01,0.02,3.94-0.08,5.62H47.8
			c-2.86,0-5.19-2.33-5.19-5.19v-20.04l3.91-4.89C46.97,128.71,47.77,130.07,48.86,131.19z M54.39,165.92
			c0.42-2.96,0.75-5.3,0.9-6.99c0.66-7.61-0.54-21.29-0.85-24.63c5.7,2.27,11.41,4.07,17.14,5.39v20.96
			c-3.93,0.69-6.92,4.12-6.92,8.24c0,4.62,3.76,8.37,8.37,8.37c4.62,0,8.37-3.76,8.37-8.37c0-4.12-3-7.55-6.92-8.24v-20.33
			c7.09,1.45,14.2,2.18,21.31,2.18c1.12,0,2.24-0.02,3.35-0.06c0.97-0.03,1.94-0.08,2.91-0.13c3.29-0.2,6.57-0.55,9.86-1.05
			c1.73-0.27,3.46-0.58,5.18-0.93V143v17.65c-3.93,0.69-6.92,4.12-6.92,8.24c0,4.62,3.76,8.37,8.37,8.37c4.62,0,8.37-3.76,8.37-8.37
			c0-4.12-3-7.55-6.92-8.24v-16.79v-3.01v-1.16c5.72-1.33,11.44-3.12,17.14-5.39c-0.15,1.59-0.5,5.52-0.75,10.03
			c-0.05,0.95-0.1,1.93-0.15,2.91c-0.18,4.15-0.23,8.46,0.05,11.69c0.15,1.69,0.48,4.03,0.9,6.99c0.64,4.53,1.49,10.56,2.13,17.58
			c-0.66,0.3-1.31,0.6-1.97,0.89c-10.53,4.62-21.11,7.47-31.7,8.56c-0.96,0.1-1.92,0.18-2.88,0.25c-16.19,1.18-32.41-1.75-48.5-8.81
			c-0.66-0.29-1.31-0.59-1.97-0.89C52.9,176.48,53.75,170.45,54.39,165.92z M52.01,186.56c14.53,6.54,29.15,9.81,43.77,9.81
			c2.51,0,5.02-0.11,7.53-0.3c0.96-0.07,1.92-0.16,2.88-0.26c11.15-1.18,22.28-4.27,33.36-9.25c0.55,7.11,0.84,15.1,0.46,23.51
			c-0.04,0.94-0.1,1.88-0.15,2.82c-0.21,3.3-0.51,6.66-0.96,10.04c-0.85,6.47-2.08,13.33-3.57,20.28c-0.44,0.03-0.89,0.06-1.33,0.08
			c-0.21,0.01-0.41,0.03-0.62,0.04c-0.74,0.04-1.49,0.06-2.24,0.09c-0.24,0.01-0.47,0.02-0.71,0.03c-0.97,0.02-1.95,0.04-2.93,0.04
			s-1.96-0.01-2.93-0.04c-0.24-0.01-0.47-0.02-0.71-0.03c-0.75-0.02-1.49-0.05-2.24-0.09c-0.21-0.01-0.41-0.03-0.62-0.04
			c-0.78-0.04-1.56-0.09-2.34-0.15c-0.05,0-0.09-0.01-0.14-0.01c-0.08-0.01-0.17-0.01-0.25-0.02c-0.86-0.07-1.73-0.14-2.59-0.23
			c-0.03,0-0.06-0.01-0.09-0.01c-0.07-0.01-0.14-0.02-0.21-0.02c-24.13-2.52-46.08-12.47-63.52-27.51
			C51.06,205.01,51.34,195.15,52.01,186.56z M139.41,242.88c-0.03,0-0.06,0.01-0.09,0.01c-0.33,0.03-0.66,0.06-0.99,0.09
			c1.45-6.85,2.65-13.52,3.45-19.67c0.45-3.42,0.76-6.81,0.97-10.15c2.56,0.2,5.1,0.31,7.65,0.31c13.38,0,26.77-2.79,42.2-8.35
			c-1.69,7.39-3.59,14.79-5.57,21.88C172.83,235.52,156.68,241.11,139.41,242.88z M151.84,145.27v-13.64c0-0.33-0.11-0.65-0.32-0.9
			l-6.19-7.75c-0.08-0.53-0.21-1.05-0.39-1.57l-2.37-6.88c-0.26-3.67-5.08-6.69-14.37-8.96c-0.41-0.1-0.84-0.2-1.27-0.3V86.84
			c7.81,1.6,15.63,2.41,23.45,2.41s15.64-0.81,23.45-2.41v22.52c-4.29,0.7-7.58,4.42-7.58,8.9c0,4.98,4.05,9.02,9.02,9.02
			s9.02-4.05,9.02-9.02c0-4.48-3.29-8.2-7.57-8.9V86.21c6.36-1.47,12.71-3.47,19.04-6c-0.31,3.22-1.69,18.65-0.95,27.15
			c0.16,1.85,0.52,4.4,0.98,7.64c0.7,4.98,1.64,11.61,2.34,19.33C182.78,141.41,167.31,145.05,151.84,145.27z"/>
	</g>
</g>
</svg>
