<?xml version="1.0" encoding="utf-8"?>
<!-- Generator: Adobe Illustrator 26.2.1, SVG Export Plug-In . SVG Version: 6.00 Build 0)  -->
<svg version="1.1" id="Camada_1" xmlns="http://www.w3.org/2000/svg" xmlns:xlink="http://www.w3.org/1999/xlink" x="0px" y="0px"
	 viewBox="0 0 255 449" style="enable-background:new 0 0 255 449;" xml:space="preserve">
<style type="text/css">
	.st0{fill:#FEFCF2;}
	.st1{fill:#00D200;}
</style>
<g>
	<circle class="st0" cx="127.5" cy="127.55" r="127.48"/>
	<g>
		<g>
			<path class="st1" d="M50.71,112.41h10.24h10.24c0.8,0,1.45-0.65,1.45-1.45V90.48c0-0.8-0.65-1.45-1.45-1.45H60.95H50.71
				c-0.8,0-1.45,0.65-1.45,1.45v20.48C49.26,111.76,49.91,112.41,50.71,112.41z M62.4,91.93h7.34v17.58H62.4V91.93z M52.16,91.93
				h7.34v17.58h-7.34V91.93z"/>
		</g>
		<g>
			<path class="st1" d="M183.81,78.8h-20.48c-0.8,0-1.45,0.65-1.45,1.45v30.72c0,0.8,0.65,1.45,1.45,1.45h20.48h20.48
				c0.8,0,1.45-0.65,1.45-1.45V80.25c0-0.8-0.65-1.45-1.45-1.45H183.81z M182.37,109.51h-17.58V81.69h17.58V109.51z M202.84,109.51
				h-17.58V81.69h17.58V109.51z"/>
		</g>
		<g>
			<path class="st1" d="M183.81,129.99h-20.48h-20.48c-0.8,0-1.45,0.65-1.45,1.45v30.72c0,0.8,0.65,1.45,1.45,1.45h20.48h20.48
				c0.8,0,1.45-0.65,1.45-1.45v-30.72C185.26,130.64,184.61,129.99,183.81,129.99z M161.89,160.71h-17.58v-27.82h17.58V160.71z
				 M182.37,160.71h-17.58v-27.82h17.58V160.71z"/>
		</g>
		<g>
			<path class="st1" d="M91.66,150.47H71.19H50.71c-0.8,0-1.45,0.65-1.45,1.45v30.72c0,0.8,0.65,1.45,1.45,1.45h20.48h20.48
				c0.8,0,1.45-0.65,1.45-1.45v-30.72C93.11,151.12,92.46,150.47,91.66,150.47z M69.74,181.19H52.16v-27.82h17.58V181.19z
				 M90.22,181.19H72.64v-27.82h17.58V181.19z"/>
		</g>
		<g>
			<path class="st1" d="M127.5,0.07C57.2,0.07,0,57.27,0,127.57c0,35.11,14.26,66.95,37.3,90.03l83.81,227.53
				c0.84,2.27,3,3.78,5.42,3.79c0.01,0,0.01,0,0.02,0c2.41,0,4.57-1.49,5.42-3.75l85.74-227.58c23.03-23.08,37.29-54.91,37.29-90.01
				C255,57.27,197.8,0.07,127.5,0.07z M39.58,68.86c-0.35,0.27-0.56,0.7-0.56,1.14v71.67v60.68c-17.1-20.2-27.43-46.31-27.43-74.78
				c0-63.91,52-115.91,115.91-115.91c22.31,0,43.17,6.34,60.87,17.31l-35.63,8.91c-0.64,0.16-1.1,0.74-1.1,1.41v19.03h-17.58V39.29
				c0-0.8-0.65-1.45-1.45-1.45s-1.45,0.65-1.45,1.45v2.22c-23.29,8.64-46.42,8.69-68.77,0.15v-2.37c0-0.8-0.65-1.45-1.45-1.45
				c-0.8,0-1.45,0.65-1.45,1.45v3.41v0v30.57L40.82,68.6C40.39,68.49,39.93,68.59,39.58,68.86z M213.08,119.75h-58.53V80.25v-8.79
				h49.75h8.79V119.75z M122.38,160.71h-8.79v-8.79c0-0.8-0.65-1.45-1.45-1.45h-8.79v-8.79c0-0.8-0.65-1.45-1.45-1.45h-8.79v-7.34
				h8.79c0.8,0,1.45-0.65,1.45-1.45v-8.79h8.79c0.8,0,1.45-0.65,1.45-1.45v-8.79h8.79c0.8,0,1.45-0.65,1.45-1.45v-8.79h8.79
				c0.8,0,1.45-0.65,1.45-1.45v-8.79h8.79c0.8,0,1.45-0.65,1.45-1.45v-8.79h7.34v38.06h-19.03c-0.8,0-1.45,0.65-1.45,1.45v49.75
				h-7.34v-8.79C123.83,161.36,123.18,160.71,122.38,160.71z M81.78,78.84L62.4,74V44.74c11.12,4.12,22.42,6.2,33.84,6.2
				c11.56,0,23.23-2.12,34.94-6.34v15.16v8.79H101.9c-0.8,0-1.45,0.65-1.45,1.45v51.19v8.79h-8.79c-0.8,0-1.45,0.65-1.45,1.45v8.79
				h-7.34V80.25C82.87,79.58,82.42,79,81.78,78.84z M79.98,81.38v58.85H41.92V71.86L79.98,81.38z M134.07,172.4v-49.75h19.03h59.98
				v38.42l-79.01,23.24V172.4z M41.92,205.66v-62.54h39.51h10.24h8.79v8.79v42.28l-54.21,15.95
				C44.76,208.69,43.32,207.2,41.92,205.66z M139.41,242.88c-0.03,0-0.06,0.01-0.09,0.01c-0.86,0.09-1.72,0.16-2.59,0.23
				c-0.13,0.01-0.26,0.02-0.39,0.03c-0.78,0.06-1.56,0.11-2.34,0.15c-0.21,0.01-0.41,0.03-0.62,0.04c-0.74,0.04-1.49,0.06-2.24,0.09
				c-0.24,0.01-0.47,0.02-0.71,0.03c-0.97,0.02-1.95,0.04-2.93,0.04s-1.96-0.01-2.93-0.04c-0.24-0.01-0.47-0.02-0.71-0.03
				c-0.75-0.02-1.49-0.05-2.24-0.09c-0.21-0.01-0.42-0.03-0.62-0.04c-0.78-0.04-1.56-0.09-2.34-0.15c-0.13-0.01-0.26-0.02-0.39-0.03
				c-0.86-0.07-1.73-0.14-2.59-0.23c-0.03,0-0.06-0.01-0.09-0.01c-4.15-0.43-8.23-1.08-12.24-1.93V214.8h100.39
				C186.16,230.19,163.9,240.36,139.41,242.88z M215.98,202.36V172.4c0-0.45-0.21-0.88-0.58-1.16c-0.36-0.27-0.83-0.36-1.27-0.24
				L70.79,211.96c-0.7,0.2-1.14,0.88-1.04,1.59c0.1,0.72,0.71,1.25,1.43,1.25h29.27v25.49c-19.69-4.72-37.43-14.48-51.8-27.84
				l166.28-48.91c0.03-0.01,0.05-0.02,0.07-0.03c0.05-0.02,0.1-0.04,0.14-0.06c0.04-0.02,0.08-0.04,0.12-0.07
				c0.04-0.02,0.08-0.05,0.12-0.08c0.04-0.03,0.07-0.06,0.11-0.09c0.03-0.03,0.07-0.06,0.1-0.1c0.03-0.03,0.06-0.07,0.09-0.11
				c0.03-0.04,0.05-0.08,0.08-0.12c0.02-0.04,0.05-0.08,0.06-0.12c0.02-0.04,0.04-0.09,0.06-0.13c0.02-0.04,0.03-0.09,0.04-0.14
				c0.01-0.04,0.02-0.09,0.03-0.13c0.01-0.05,0.01-0.1,0.02-0.16c0-0.03,0.01-0.05,0.01-0.07V121.2V70.01c0-0.8-0.65-1.45-1.45-1.45
				h-8.79v-8.79c0-0.8-0.65-1.45-1.45-1.45h-8.79V33.77c29.01,21.09,47.91,55.28,47.91,93.8
				C243.41,156.05,233.08,182.16,215.98,202.36z"/>
		</g>
	</g>
</g>
</svg>
