<?xml version="1.0" encoding="utf-8"?>
<!-- Generator: Adobe Illustrator 26.2.1, SVG Export Plug-In . SVG Version: 6.00 Build 0)  -->
<svg version="1.1" id="Camada_1" xmlns="http://www.w3.org/2000/svg" xmlns:xlink="http://www.w3.org/1999/xlink" x="0px" y="0px"
	 viewBox="0 0 255 449" style="enable-background:new 0 0 255 449;" xml:space="preserve">
<style type="text/css">
	.st0{fill:#FEFCF2;}
	.st1{fill:#FF0000;}
</style>
<g>
	<circle class="st0" cx="127.5" cy="127.55" r="127.48"/>
	<g>
		<g>
			<path class="st1" d="M122.08,218.32c1.33,1.66,3.3,2.61,5.42,2.61s4.1-0.95,5.42-2.61l20.67-25.84v16.4
				c0,0.8,0.65,1.45,1.45,1.45h22.04c0.8,0,1.45-0.65,1.45-1.45v-31.61h31.61c0.8,0,1.45-0.65,1.45-1.45v-22.04
				c0-0.8-0.65-1.45-1.45-1.45h-24.43l15.28-19.11c8.35-10.43,12.09-23.48,10.53-36.74c-1.51-12.9-7.92-24.36-18.05-32.26
				c-6.86-5.35-14.43-8.18-21.9-8.18c-20.26,0-36.56,21.5-42.35,32.86c-0.33,0.66-0.98,1.05-1.72,1.05c-0.74,0-1.39-0.39-1.72-1.05
				c-5.79-11.37-22.09-32.86-42.35-32.86c-7.47,0-15.04,2.83-21.9,8.18C51.4,72.14,44.99,83.59,43.48,96.5
				c-1.56,13.26,2.18,26.31,10.53,36.74L122.08,218.32z M46.36,96.83c1.42-12.13,7.44-22.89,16.95-30.31
				c6.35-4.95,13.3-7.57,20.12-7.57c9.96,0,18.64,5.95,24.16,10.93c6.09,5.51,11.93,13.11,15.61,20.34
				c0.83,1.63,2.48,2.63,4.31,2.63c1.83,0,3.48-1.01,4.31-2.63c3.68-7.23,9.52-14.84,15.61-20.34c5.52-4.99,14.19-10.93,24.16-10.93
				c6.81,0,13.77,2.62,20.12,7.57c9.51,7.42,15.53,18.18,16.95,30.31c1.46,12.48-2.06,24.77-9.91,34.59L182,152.34h-3.46v-31.61
				c0-0.8-0.65-1.45-1.45-1.45h-22.04c-0.8,0-1.45,0.65-1.45,1.45v31.61h-31.61c-0.8,0-1.45,0.65-1.45,1.45v22.04
				c0,0.8,0.65,1.45,1.45,1.45h31.61v10.56l-22.94,28.67c-0.77,0.97-1.93,1.52-3.16,1.52s-2.39-0.55-3.16-1.52l-68.07-85.09
				C48.41,121.6,44.89,109.32,46.36,96.83z"/>
		</g>
		<g>
			<path class="st1" d="M127.5,0.07C57.2,0.07,0,57.27,0,127.57c0,35.11,14.26,66.95,37.3,90.03l83.81,227.53
				c0.84,2.27,3,3.78,5.42,3.79c0.01,0,0.02,0,0.02,0c2.41,0,4.57-1.49,5.42-3.75l85.74-227.58c23.03-23.08,37.29-54.91,37.29-90.01
				C255,57.27,197.8,0.07,127.5,0.07z M127.5,11.67c63.91,0,115.91,52,115.91,115.91c0,54.09-37.25,99.64-87.44,112.37
				c-0.24,0.06-0.48,0.12-0.72,0.18c-0.78,0.19-1.57,0.38-2.36,0.56c-1,0.22-1.99,0.43-3,0.63c-0.56,0.11-1.12,0.21-1.69,0.32
				c-1.19,0.21-2.38,0.42-3.58,0.59c-0.33,0.05-0.67,0.09-1,0.14c-1.4,0.19-2.81,0.38-4.22,0.52c-0.03,0-0.06,0.01-0.09,0.01
				c-0.86,0.09-1.72,0.16-2.59,0.23c-0.13,0.01-0.26,0.02-0.39,0.03c-0.78,0.06-1.56,0.11-2.34,0.15c-0.21,0.01-0.41,0.03-0.62,0.04
				c-0.74,0.04-1.49,0.06-2.24,0.09c-0.24,0.01-0.47,0.02-0.71,0.03c-0.97,0.02-1.95,0.04-2.93,0.04s-1.96-0.01-2.93-0.04
				c-0.24-0.01-0.47-0.02-0.71-0.03c-0.75-0.02-1.49-0.05-2.24-0.09c-0.21-0.01-0.42-0.03-0.62-0.04c-0.78-0.04-1.56-0.09-2.34-0.15
				c-0.13-0.01-0.26-0.02-0.39-0.03c-0.86-0.07-1.73-0.14-2.59-0.23c-0.03,0-0.06-0.01-0.09-0.01c-1.41-0.14-2.82-0.32-4.22-0.52
				c-0.33-0.05-0.67-0.09-1-0.14c-1.2-0.18-2.39-0.38-3.58-0.59c-0.56-0.1-1.13-0.21-1.69-0.32c-1-0.2-2-0.41-3-0.63
				c-0.79-0.18-1.58-0.36-2.36-0.56c-0.24-0.06-0.48-0.12-0.72-0.18c-50.19-12.72-87.44-58.27-87.44-112.37
				C11.59,63.66,63.59,11.67,127.5,11.67z"/>
		</g>
	</g>
</g>
</svg>
