<?xml version="1.0" encoding="utf-8"?>
<!-- Generator: Adobe Illustrator 26.2.1, SVG Export Plug-In . SVG Version: 6.00 Build 0)  -->
<svg version="1.1" id="Camada_1" xmlns="http://www.w3.org/2000/svg" xmlns:xlink="http://www.w3.org/1999/xlink" x="0px" y="0px"
	 viewBox="0 0 255 449" style="enable-background:new 0 0 255 449;" xml:space="preserve">
<style type="text/css">
	.st0{fill:#FEFCF2;}
	.st1{fill:#FF9100;}
</style>
<g>
	<circle class="st0" cx="127.5" cy="127.55" r="127.48"/>
	<path class="st1" d="M127.5,0.07C57.2,0.07,0,57.27,0,127.57c0,35.11,14.26,66.95,37.3,90.03l83.81,227.53
		c0.84,2.27,3,3.78,5.42,3.79c0.01,0,0.02,0,0.02,0c2.41,0,4.57-1.49,5.42-3.75l85.74-227.58c23.03-23.08,37.29-54.91,37.29-90.01
		C255,57.27,197.8,0.07,127.5,0.07z M127.5,11.67c63.91,0,115.91,52,115.91,115.91c0,48.95-30.51,90.92-73.5,107.88L195.94,53.6
		c0.42-2.94-0.41-5.42-2.29-6.81c-1.55-1.15-4.44-2.04-9.39,0.27c-16.8,7.82-30.23,23.94-37.81,45.4
		c-19.05,53.92-7.58,89.94,1.15,101.46c6.32,8.33,4.43,13.89,0.3,26.08c-0.5,1.48-1.03,3.05-1.58,4.73
		c-1.04,3.18-2.12,6.41-3.2,9.66c-0.93,2.79-1.86,5.59-2.78,8.38c-0.31,0.03-0.62,0.07-0.93,0.11c-0.03,0-0.06,0.01-0.09,0.01
		c-0.86,0.09-1.72,0.16-2.59,0.23c-0.13,0.01-0.26,0.02-0.39,0.03c-0.78,0.06-1.56,0.11-2.34,0.15c-0.21,0.01-0.41,0.03-0.62,0.04
		c-0.74,0.04-1.49,0.06-2.24,0.09c-0.24,0.01-0.47,0.02-0.71,0.03c-0.98,0.02-1.95,0.04-2.93,0.04c-0.98,0-1.96-0.01-2.93-0.04
		c-0.24-0.01-0.47-0.02-0.71-0.03c-0.75-0.02-1.49-0.05-2.24-0.09c-0.21-0.01-0.42-0.03-0.62-0.04c-0.78-0.04-1.56-0.09-2.34-0.15
		c-0.13-0.01-0.26-0.02-0.39-0.03c-0.86-0.07-1.73-0.14-2.59-0.23c-0.03,0-0.06-0.01-0.09-0.01c-0.92-0.09-1.83-0.2-2.75-0.32
		c-2.71-14.51-5.22-28.66-6.48-42.5c-1.04-11.06,2.73-22.03,10.36-30.11c11.31-13.39,12.42-26.74,6.71-58.84l-5.48-30.79
		c-0.41-2.31-2.51-3.94-4.85-3.75l-0.23,0.02c-2.51,0.2-4.39,2.4-4.19,4.91c0,0,0,0,0,0l4.42,55.96c0.47,2.58-1.21,5.07-3.78,5.6
		c-2.62-0.12-4.67-2.31-4.62-4.94l-4.42-55.96c-0.2-2.51-2.4-4.39-4.91-4.19c-2.51,0.2-4.39,2.4-4.19,4.91l4.42,55.96
		c0.47,2.58-1.21,5.07-3.78,5.6c-2.62-0.12-4.67-2.31-4.62-4.94l-4.42-55.96c-0.2-2.51-2.4-4.39-4.91-4.19
		c-2.51,0.2-4.39,2.4-4.19,4.91l4.42,55.96c0.47,2.58-1.21,5.07-3.78,5.6c-2.62-0.12-4.67-2.31-4.62-4.94l-4.42-55.96
		c-0.2-2.51-2.4-4.39-4.91-4.19c0,0,0,0,0,0l-0.23,0.02c-2.34,0.18-4.16,2.12-4.2,4.47l-0.58,31.27c-0.6,32.6,2.6,45.6,15.87,57.06
		c8.8,6.78,14.25,17.02,14.96,28.11c0.75,11.16,0.73,22.64,0.48,34.4c-43.83-16.55-75.08-58.93-75.08-108.48
		C11.59,63.66,63.59,11.67,127.5,11.67z M143.52,242.37c0.78-2.37,1.57-4.73,2.35-7.07c1.08-3.26,2.16-6.49,3.2-9.67
		c0.55-1.67,1.08-3.23,1.58-4.7c4.19-12.38,6.5-19.2-0.74-28.76c-8.4-11.09-19.37-45.99-0.73-98.74
		c7.32-20.72,20.21-36.25,36.3-43.74c2.86-1.33,5.15-1.53,6.44-0.57c1,0.74,1.41,2.22,1.15,4.07l-26.26,183.43
		C159.37,239.31,151.58,241.25,143.52,242.37z"/>
</g>
</svg>
