<?xml version="1.0" encoding="utf-8"?>
<!-- Generator: Adobe Illustrator 26.2.1, SVG Export Plug-In . SVG Version: 6.00 Build 0)  -->
<svg version="1.1" id="Camada_1" xmlns="http://www.w3.org/2000/svg" xmlns:xlink="http://www.w3.org/1999/xlink" x="0px" y="0px"
	 viewBox="0 0 255 419" style="enable-background:new 0 0 255 419;" xml:space="preserve">
<style type="text/css">
	.st0{fill:#FF9100;}
	.st1{fill:#FFFFFF;}
	.st2{clip-path:url(#SVGID_00000119105247610294745100000008664008173223772561_);}
</style>
<g>
	<g>
		<g>
			<path class="st0" d="M41,216.2L41,216.2l70.7,192c5.1,13.9,24.7,13.9,29.9,0.1L214,216.2h0c-22.3,21.8-52.8,35.3-86.5,35.3
				S63.3,238,41,216.2z"/>
		</g>
	</g>
	<circle class="st0" cx="127.5" cy="127.9" r="123.6"/>
	<path class="st1" d="M127.5,255.4C57.2,255.4,0,198.2,0,127.9S57.2,0.4,127.5,0.4S255,57.6,255,127.9S197.8,255.4,127.5,255.4z
		 M127.5,8.3C61.5,8.3,7.8,61.9,7.8,127.9s53.7,119.7,119.7,119.7s119.7-53.7,119.7-119.7S193.5,8.3,127.5,8.3z"/>
	<g>
		<defs>
			<circle id="SVGID_1_" cx="127.5" cy="127.9" r="123.6"/>
		</defs>
		<clipPath id="SVGID_00000096775924991685788080000007192758082887448732_">
			<use xlink:href="#SVGID_1_"  style="overflow:visible;"/>
		</clipPath>
		<g style="clip-path:url(#SVGID_00000096775924991685788080000007192758082887448732_);">
			<g>
				<path class="st1" d="M117.8,79.9c-0.4-2.3-2.6-4-4.9-3.8l-0.2,0c-2.6,0.2-4.5,2.4-4.3,5c0,0,0,0,0,0l4.5,56.8
					c0.5,2.6-1.2,5.1-3.8,5.7c-2.7-0.1-4.7-2.3-4.7-5l-4.5-56.8c-0.2-2.6-2.4-4.5-5-4.3c-2.6,0.2-4.5,2.4-4.3,5l0,0l4.5,56.8
					c0.5,2.6-1.2,5.1-3.8,5.7c-2.7-0.1-4.7-2.3-4.7-5l-4.5-56.8c-0.2-2.6-2.4-4.5-5-4.3c-2.6,0.2-4.5,2.4-4.3,5l4.5,56.8
					c0.5,2.6-1.2,5.1-3.8,5.7c-2.7-0.1-4.7-2.3-4.7-5l-4.5-56.8c-0.2-2.6-2.4-4.5-5-4.3c0,0,0,0,0,0l-0.2,0
					c-2.4,0.2-4.2,2.2-4.3,4.5l-0.6,31.7c-0.6,33.1,2.6,46.3,16.1,57.9c8.9,6.9,14.5,17.3,15.2,28.5c2.9,43.8-5.8,92.4,5.8,142.8
					c3.1,13.3,9,17.3,17.1,16.6s13.3-5.4,14.3-19.1c3.5-51.6-12.7-98.3-16.7-142c-1.1-11.2,2.8-22.4,10.5-30.6
					c11.5-13.6,12.6-27.1,6.8-59.7L117.8,79.9z"/>
			</g>
			<g>
				<path class="st1" d="M185.8,47.5c-5.5,2.6-26.1,12.7-37.6,45.3c-18.1,51.2-9.1,88.3,1,101.6c7.7,10.2,4.1,16.8-1.1,32.6
					c-12,36.4-27.8,79-16.8,96.7c2.3,3.9,6.2,6.7,10.6,7.7c7.5,1.1,14.2-2.6,16.3-17.3l37.4-261.5C196.2,47.7,193,44.1,185.8,47.5z"
					/>
			</g>
		</g>
	</g>
</g>
</svg>
