<svg xmlns="http://www.w3.org/2000/svg" xmlns:xlink="http://www.w3.org/1999/xlink" width="1080" zoomAndPan="magnify" viewBox="0 0 810 809.999993" height="1080" preserveAspectRatio="xMidYMid meet" version="1.0"><defs><clipPath id="30ab5099e3"><path d="M 132.214844 162 L 677.464844 162 L 677.464844 647.878906 L 132.214844 647.878906 Z M 132.214844 162 " clip-rule="nonzero"/></clipPath></defs><rect x="-81" width="972" fill="#ffffff" y="-80.999999" height="971.999992" fill-opacity="1"/><rect x="-81" width="972" fill="#ffffff" y="-80.999999" height="971.999992" fill-opacity="1"/><g clip-path="url(#30ab5099e3)"><path fill="#ff0202" d="M 670.332031 648.113281 L 139.664062 648.113281 C 135.648438 648.113281 132.386719 644.882812 132.386719 640.867188 L 132.386719 579.863281 C 132.386719 575.847656 135.648438 572.617188 139.664062 572.617188 L 670.332031 572.617188 C 674.34375 572.617188 677.605469 575.847656 677.605469 579.863281 L 677.605469 640.867188 C 677.605469 644.882812 674.34375 648.113281 670.332031 648.113281 Z M 231.910156 250.65625 C 229.316406 250.65625 226.839844 249.628906 224.96875 247.789062 L 194.601562 217.390625 C 190.765625 213.558594 190.765625 207.339844 194.601562 203.503906 C 198.433594 199.671875 204.652344 199.671875 208.488281 203.503906 L 238.855469 233.902344 C 245.042969 240.0625 240.632812 250.65625 231.910156 250.65625 Z M 270.277344 224.0625 C 265.839844 224.0625 261.945312 221.074219 260.796875 216.789062 L 249.691406 175.3125 C 248.300781 170.089844 251.410156 164.6875 256.632812 163.269531 C 261.855469 161.878906 267.257812 165.019531 268.648438 170.210938 L 279.785156 211.714844 C 281.445312 217.933594 276.707031 224.0625 270.277344 224.0625 Z M 205.347656 289.023438 C 204.503906 289.023438 203.625 288.902344 202.8125 288.691406 L 161.304688 277.550781 C 156.082031 276.164062 152.976562 270.757812 154.363281 265.539062 C 155.78125 260.316406 161.183594 257.207031 166.40625 258.59375 L 207.882812 269.703125 C 218.929688 272.660156 216.695312 289.023438 205.347656 289.023438 Z M 578.082031 250.65625 C 569.359375 250.65625 564.953125 240.0625 571.140625 233.902344 L 601.507812 203.503906 C 605.339844 199.671875 611.558594 199.671875 615.390625 203.503906 C 619.226562 207.339844 619.226562 213.558594 615.390625 217.390625 L 585.027344 247.789062 C 583.183594 249.628906 580.679688 250.65625 578.082031 250.65625 Z M 539.714844 224.0625 C 533.285156 224.0625 528.546875 217.933594 530.238281 211.714844 L 541.347656 170.210938 C 542.734375 165.019531 548.167969 161.878906 553.359375 163.269531 C 558.582031 164.6875 561.722656 170.089844 560.304688 175.3125 L 549.195312 216.789062 C 548.046875 221.074219 544.152344 224.0625 539.714844 224.0625 Z M 604.644531 289.023438 C 593.296875 289.023438 591.09375 272.660156 602.109375 269.703125 L 643.617188 258.59375 C 648.839844 257.207031 654.242188 260.316406 655.628906 265.539062 C 657.019531 270.757812 653.910156 276.164062 648.6875 277.550781 L 607.183594 288.691406 C 606.367188 288.902344 605.523438 289.023438 604.644531 289.023438 Z M 211.113281 527.730469 L 246.613281 336.023438 L 563.382812 336.023438 L 598.878906 527.730469 L 409.070312 527.730469 L 409.070312 466.0625 C 423.078125 464.25 433.914062 452.265625 433.914062 437.777344 C 433.914062 422.050781 421.117188 409.222656 405.390625 409.222656 C 389.664062 409.222656 376.832031 422.050781 376.832031 437.777344 C 376.832031 452.265625 387.699219 464.25 401.707031 466.0625 L 401.707031 527.730469 Z M 426.550781 437.777344 C 426.550781 426.097656 417.070312 416.585938 405.390625 416.585938 C 393.707031 416.585938 384.230469 426.097656 384.230469 437.777344 C 384.230469 449.460938 393.707031 458.9375 405.390625 458.9375 C 417.070312 458.9375 426.550781 449.460938 426.550781 437.777344 Z M 247.96875 328.625 L 257.476562 277.308594 C 258.113281 273.867188 261.128906 271.394531 264.632812 271.394531 L 545.359375 271.394531 C 548.863281 271.394531 551.882812 273.867188 552.515625 277.308594 L 562.023438 328.625 Z M 189.046875 565.464844 L 189.046875 542.160156 C 189.046875 538.144531 192.308594 534.886719 196.292969 534.886719 L 613.703125 534.886719 C 617.714844 534.886719 620.945312 538.144531 620.945312 542.160156 L 620.945312 565.464844 Z M 189.046875 565.464844 " fill-opacity="1" fill-rule="evenodd"/></g></svg>