<svg xmlns="http://www.w3.org/2000/svg" xmlns:xlink="http://www.w3.org/1999/xlink" width="1080" zoomAndPan="magnify" viewBox="0 0 810 809.999993" height="1080" preserveAspectRatio="xMidYMid meet" version="1.0"><defs><clipPath id="c570edf760"><path d="M 119 147.519531 L 688.757812 147.519531 L 688.757812 658 L 119 658 Z M 119 147.519531 " clip-rule="nonzero"/></clipPath></defs><rect x="-81" width="972" fill="#ffffff" y="-80.999999" height="971.999992" fill-opacity="1"/><rect x="-81" width="972" fill="#ffffff" y="-80.999999" height="971.999992" fill-opacity="1"/><g clip-path="url(#c570edf760)"><path fill="#ff0202" d="M 203.617188 596.859375 L 604.0625 596.859375 C 610.742188 596.859375 616.21875 602.332031 616.21875 609.015625 L 616.21875 644.960938 C 616.21875 651.644531 610.742188 657.117188 604.0625 657.117188 L 203.617188 657.117188 C 196.933594 657.117188 191.460938 651.644531 191.460938 644.960938 L 191.460938 609.015625 C 191.460938 602.332031 196.933594 596.859375 203.617188 596.859375 Z M 403.855469 286.152344 C 482.335938 286.152344 546.554688 350.375 546.554688 428.882812 L 546.554688 574.679688 L 261.125 574.679688 L 261.125 428.882812 C 261.125 350.375 325.34375 286.152344 403.855469 286.152344 Z M 386.316406 458.675781 C 386.777344 469.097656 394.761719 474.449219 402.957031 474.699219 C 403.144531 474.699219 403.328125 474.699219 403.515625 474.699219 C 404.597656 474.699219 405.648438 474.359375 406.730469 474.171875 C 407.628906 474.019531 408.558594 474.019531 409.421875 473.738281 C 410.597656 473.335938 411.621094 472.625 412.671875 472.007812 C 413.414062 471.605469 414.25 471.328125 414.898438 470.800781 C 415.980469 469.902344 416.753906 468.667969 417.558594 467.492188 C 417.992188 466.902344 418.578125 466.46875 418.917969 465.789062 C 419.910156 463.777344 420.558594 461.457031 420.714844 458.765625 L 425.847656 357.085938 C 425.847656 354.828125 425.695312 352.695312 425.355469 350.714844 C 425.167969 349.539062 424.828125 348.488281 424.519531 347.433594 C 424.332031 346.691406 424.210938 345.855469 423.960938 345.175781 C 423.589844 344.15625 423.125 343.289062 422.664062 342.363281 C 422.382812 341.742188 422.136719 341.0625 421.796875 340.472656 C 421.332031 339.699219 420.746094 339.050781 420.21875 338.339844 C 419.816406 337.78125 419.445312 337.164062 418.980469 336.636719 C 418.394531 335.988281 417.683594 335.464844 417.03125 334.90625 C 416.570312 334.503906 416.136719 334.039062 415.671875 333.667969 C 414.898438 333.144531 414.0625 332.742188 413.257812 332.308594 C 412.824219 332.058594 412.394531 331.75 411.960938 331.566406 C 411.21875 331.226562 410.414062 331.039062 409.640625 330.824219 C 409.082031 330.636719 408.558594 330.390625 407.96875 330.265625 C 407.351562 330.140625 406.730469 330.140625 406.113281 330.082031 C 405.371094 330.019531 404.628906 329.863281 403.917969 329.863281 C 403.886719 329.863281 403.886719 329.863281 403.886719 329.863281 C 403.265625 329.863281 402.679688 329.988281 402.089844 330.050781 C 401.316406 330.113281 400.542969 330.140625 399.773438 330.296875 C 399.214844 330.421875 398.65625 330.667969 398.101562 330.824219 C 397.328125 331.070312 396.554688 331.257812 395.78125 331.566406 C 395.253906 331.8125 394.761719 332.183594 394.234375 332.460938 C 393.492188 332.863281 392.75 333.203125 392.070312 333.699219 C 391.667969 334.007812 391.328125 334.410156 390.925781 334.71875 C 390.183594 335.339844 389.410156 335.957031 388.726562 336.699219 C 388.449219 337.011719 388.203125 337.441406 387.921875 337.78125 C 387.210938 338.648438 386.5 339.515625 385.914062 340.535156 C 385.480469 341.246094 385.171875 342.113281 384.832031 342.886719 C 384.460938 343.660156 384.027344 344.371094 383.746094 345.207031 C 383.285156 346.445312 383.003906 347.867188 382.695312 349.261719 C 382.601562 349.785156 382.417969 350.1875 382.355469 350.714844 C 382.015625 352.722656 381.859375 354.828125 381.859375 357.085938 Z M 403.855469 530.96875 C 413.597656 530.96875 421.519531 523.050781 421.519531 513.304688 C 421.519531 503.53125 413.597656 495.609375 403.855469 495.609375 C 394.078125 495.609375 386.160156 503.53125 386.160156 513.304688 C 386.160156 523.050781 394.078125 530.96875 403.855469 530.96875 Z M 403.855469 147.691406 C 411.898438 147.691406 418.519531 154.28125 418.519531 162.355469 L 418.519531 232.699219 C 418.519531 240.773438 411.898438 247.363281 403.855469 247.363281 C 395.78125 247.363281 389.191406 240.773438 389.191406 232.699219 L 389.191406 162.355469 C 389.191406 154.28125 395.78125 147.691406 403.855469 147.691406 Z M 120.3125 353.683594 C 122.816406 346.011719 131.105469 341.773438 138.777344 344.28125 L 205.691406 366.027344 C 213.359375 368.5 217.597656 376.824219 215.125 384.492188 C 212.617188 392.164062 204.296875 396.402344 196.65625 393.898438 L 129.714844 372.152344 C 122.042969 369.675781 117.835938 361.355469 120.3125 353.683594 Z M 228.613281 204.640625 C 235.140625 199.878906 244.359375 201.363281 249.089844 207.859375 L 290.449219 264.808594 C 295.183594 271.304688 293.730469 280.523438 287.203125 285.257812 C 280.675781 290.019531 271.457031 288.535156 266.722656 282.039062 L 225.363281 225.089844 C 220.628906 218.59375 222.085938 209.375 228.613281 204.640625 Z M 687.367188 353.683594 C 689.875 361.355469 685.636719 369.675781 677.964844 372.152344 L 611.054688 393.898438 C 603.382812 396.402344 595.058594 392.164062 592.585938 384.492188 C 590.078125 376.824219 594.316406 368.5 601.988281 366.027344 L 668.898438 344.28125 C 676.570312 341.773438 684.894531 346.011719 687.367188 353.683594 Z M 579.097656 204.640625 C 585.59375 209.375 587.078125 218.59375 582.316406 225.089844 L 540.957031 282.039062 C 536.222656 288.535156 527.003906 290.019531 520.476562 285.257812 C 513.980469 280.523438 512.496094 271.304688 517.261719 264.808594 L 558.621094 207.859375 C 563.351562 201.363281 572.570312 199.878906 579.097656 204.640625 Z M 579.097656 204.640625 " fill-opacity="1" fill-rule="evenodd"/></g></svg>