<?xml version="1.0" encoding="utf-8"?>
<svg viewBox="0 0 1620 1619.99993" xmlns="http://www.w3.org/2000/svg">
    <defs>
        <clipPath id="e8a0564faa">
            <path d="M 80 142.445312 L 1546 142.445312 L 1546 1455 L 80 1455 Z M 80 142.445312 " clip-rule="nonzero"/>
        </clipPath>
    </defs>
    <g clip-path="url(#e8a0564faa)" style="" transform="matrix(1.1001930236816406, 0, 0, 1.1915650367736816, -87.14600372314453, -159.86160278320312)">
        <path fill="#ff0202" d="M 297.363281 1299.789062 L 1328.769531 1299.789062 C 1345.980469 1299.789062 1360.082031 1313.890625 1360.082031 1331.101562 L 1360.082031 1423.683594 C 1360.082031 1440.894531 1345.980469 1454.996094 1328.769531 1454.996094 L 297.363281 1454.996094 C 280.152344 1454.996094 266.050781 1440.894531 266.050781 1423.683594 L 266.050781 1331.101562 C 266.050781 1313.890625 280.152344 1299.789062 297.363281 1299.789062 Z M 813.105469 499.519531 C 1015.246094 499.519531 1180.652344 664.929688 1180.652344 867.148438 L 1180.652344 1242.660156 L 445.480469 1242.660156 L 445.480469 867.148438 C 445.480469 664.929688 610.886719 499.519531 813.105469 499.519531 Z M 767.929688 943.875 C 769.125 970.726562 789.679688 984.511719 810.796875 985.148438 C 811.273438 985.148438 811.75 985.148438 812.230469 985.148438 C 815.019531 985.148438 817.726562 984.269531 820.515625 983.792969 C 822.828125 983.394531 825.214844 983.394531 827.449219 982.675781 C 830.476562 981.640625 833.105469 979.808594 835.8125 978.214844 C 837.726562 977.179688 839.878906 976.460938 841.550781 975.109375 C 844.339844 972.796875 846.332031 969.609375 848.402344 966.582031 C 849.519531 965.070312 851.03125 963.953125 851.90625 962.199219 C 854.457031 957.023438 856.132812 951.046875 856.527344 944.113281 L 869.753906 682.21875 C 869.753906 676.402344 869.355469 670.90625 868.480469 665.804688 C 868.003906 662.777344 867.125 660.070312 866.328125 657.359375 C 865.851562 655.449219 865.53125 653.296875 864.894531 651.542969 C 863.9375 648.914062 862.742188 646.683594 861.550781 644.292969 C 860.832031 642.699219 860.195312 640.945312 859.316406 639.433594 C 858.121094 637.441406 856.609375 635.765625 855.253906 633.933594 C 854.21875 632.5 853.261719 630.90625 852.066406 629.554688 C 850.554688 627.878906 848.722656 626.523438 847.046875 625.089844 C 845.851562 624.054688 844.738281 622.859375 843.542969 621.902344 C 841.550781 620.550781 839.398438 619.511719 837.328125 618.398438 C 836.210938 617.761719 835.097656 616.964844 833.980469 616.484375 C 832.070312 615.609375 829.996094 615.132812 828.003906 614.574219 C 826.570312 614.09375 825.214844 613.457031 823.703125 613.140625 C 822.109375 612.820312 820.515625 612.820312 818.921875 612.660156 C 817.011719 612.503906 815.097656 612.105469 813.265625 612.105469 C 813.1875 612.105469 813.1875 612.105469 813.1875 612.105469 C 811.59375 612.105469 810.078125 612.421875 808.5625 612.582031 C 806.574219 612.742188 804.582031 612.820312 802.589844 613.21875 C 801.15625 613.539062 799.71875 614.175781 798.285156 614.574219 C 796.292969 615.210938 794.300781 615.6875 792.308594 616.484375 C 790.957031 617.125 789.679688 618.078125 788.328125 618.796875 C 786.414062 619.832031 784.503906 620.707031 782.75 621.984375 C 781.714844 622.78125 780.835938 623.816406 779.800781 624.613281 C 777.890625 626.207031 775.898438 627.800781 774.144531 629.710938 C 773.425781 630.507812 772.789062 631.625 772.074219 632.5 C 770.242188 634.730469 768.40625 636.960938 766.894531 639.59375 C 765.777344 641.425781 764.980469 643.65625 764.105469 645.648438 C 763.148438 647.640625 762.035156 649.472656 761.316406 651.625 C 760.121094 654.808594 759.40625 658.476562 758.609375 662.0625 C 758.367188 663.414062 757.890625 664.449219 757.730469 665.804688 C 756.855469 670.984375 756.457031 676.402344 756.457031 682.21875 Z M 813.105469 1130.078125 C 838.203125 1130.078125 858.601562 1109.679688 858.601562 1084.582031 C 858.601562 1059.40625 838.203125 1039.007812 813.105469 1039.007812 C 787.929688 1039.007812 767.53125 1059.40625 767.53125 1084.582031 C 767.53125 1109.679688 787.929688 1130.078125 813.105469 1130.078125 Z M 813.105469 142.890625 C 833.820312 142.890625 850.871094 159.863281 850.871094 180.65625 L 850.871094 361.839844 C 850.871094 382.636719 833.820312 399.609375 813.105469 399.609375 C 792.308594 399.609375 775.339844 382.636719 775.339844 361.839844 L 775.339844 180.65625 C 775.339844 159.863281 792.308594 142.890625 813.105469 142.890625 Z M 82.792969 673.453125 C 89.25 653.695312 110.601562 642.777344 130.363281 649.234375 L 302.699219 705.246094 C 322.460938 711.621094 333.375 733.050781 327.003906 752.8125 C 320.546875 772.570312 299.117188 783.488281 279.433594 777.035156 L 107.015625 721.019531 C 87.257812 714.648438 76.421875 693.214844 82.792969 673.453125 Z M 361.742188 289.574219 C 378.550781 277.304688 402.296875 281.128906 414.488281 297.859375 L 521.011719 444.546875 C 533.203125 461.277344 529.460938 485.019531 512.648438 497.210938 C 495.835938 509.480469 472.09375 505.65625 459.902344 488.925781 L 353.375 342.242188 C 341.183594 325.507812 344.929688 301.765625 361.742188 289.574219 Z M 1543.335938 673.453125 C 1549.789062 693.214844 1538.875 714.648438 1519.117188 721.019531 L 1346.777344 777.035156 C 1327.015625 783.488281 1305.582031 772.570312 1299.210938 752.8125 C 1292.757812 733.050781 1303.671875 711.621094 1323.429688 705.246094 L 1495.769531 649.234375 C 1515.53125 642.777344 1536.964844 653.695312 1543.335938 673.453125 Z M 1264.472656 289.574219 C 1281.203125 301.765625 1285.027344 325.507812 1272.757812 342.242188 L 1166.230469 488.925781 C 1154.039062 505.65625 1130.296875 509.480469 1113.484375 497.210938 C 1096.753906 485.019531 1092.929688 461.277344 1105.199219 444.546875 L 1211.726562 297.859375 C 1223.914062 281.128906 1247.660156 277.304688 1264.472656 289.574219 Z M 1264.472656 289.574219 " fill-opacity="1" fill-rule="evenodd"/>
    </g>
</svg>