<?xml version="1.0" encoding="utf-8"?>
<!-- Generator: Adobe Illustrator 26.2.1, SVG Export Plug-In . SVG Version: 6.00 Build 0)  -->
<svg version="1.1" id="Camada_1" xmlns="http://www.w3.org/2000/svg" xmlns:xlink="http://www.w3.org/1999/xlink" x="0px" y="0px"
	 viewBox="0 0 255 419" style="enable-background:new 0 0 255 419;" xml:space="preserve">
<style type="text/css">
	.st0{fill:#F5C800;}
	.st1{fill:#FFFFFF;}
</style>
<g>
	<g>
		<g>
			<path class="st0" d="M41,216.2L41,216.2l70.7,192c5.1,13.9,24.7,13.9,29.9,0.1L214,216.2h0c-22.3,21.8-52.8,35.3-86.5,35.3
				S63.3,238,41,216.2z"/>
		</g>
	</g>
	<g>
		<circle class="st0" cx="127.5" cy="127.9" r="123.6"/>
		<path class="st1" d="M127.5,255.4C57.2,255.4,0,198.2,0,127.9S57.2,0.4,127.5,0.4S255,57.6,255,127.9S197.8,255.4,127.5,255.4z
			 M127.5,8.3C61.5,8.3,7.8,61.9,7.8,127.9s53.7,119.7,119.7,119.7s119.7-53.7,119.7-119.7S193.5,8.3,127.5,8.3z"/>
	</g>
	<g>
		<g>
			<path class="st1" d="M186.6,153.6c-16.8,0-39.1-11.1-58.8-30.7C99.5,94.5,89,60.6,104,45.6c7.5-7.5,19.9-8.9,34.9-3.8
				c14.1,4.7,29.2,14.6,42.3,27.8c28.4,28.4,38.9,62.3,23.9,77.3C200.5,151.4,194.1,153.6,186.6,153.6z M122.5,46.7
				c-5.5,0-10,1.5-13,4.5C98,62.6,109,92.9,133.4,117.3c24.4,24.4,54.7,35.4,66.2,23.9c11.5-11.5,0.5-41.8-23.9-66.2
				c-12.3-12.3-26.3-21.5-39.3-25.9C131.3,47.5,126.6,46.7,122.5,46.7z"/>
		</g>
		<g>
			<g>
				<path class="st1" d="M130.6,120.1C108.1,97.6,97,71,102.4,55.4l0,0L48.3,175.1c-4.9,10.7,5.4,22,16.5,18.1L194,148.7l0,0
					C178.2,153,152.5,142,130.6,120.1z"/>
				<path class="st1" d="M60.2,197.9c-4.7,0-9.2-2-12.6-5.6c-4.8-5.2-5.9-12.4-2.9-18.8L98.8,53.8c0.5-1.2,1.6-2,2.9-2.2
					c1.3-0.2,2.6,0.2,3.5,1.1c1.1,1.1,1.4,2.6,0.9,4.1c-5,14.4,6.5,39.9,27.3,60.6c20.3,20.3,44.8,31.7,59.5,27.6
					c1.4-0.4,2.8,0,3.8,1c1,1,1.4,2.3,1.1,3.7c-0.3,1.3-1.3,2.4-2.5,2.8L66.1,196.9C64.1,197.5,62.1,197.9,60.2,197.9z M98.3,73.9
					L51.8,176.7c-1.9,4.2-0.5,8,1.6,10.3s5.7,4,10.1,2.5l110-37.8c-14.6-4-31-14.2-45.6-28.8l0,0C112.2,107.3,101.7,89.3,98.3,73.9z
					"/>
			</g>
			<g>
				<path class="st1" d="M104.1,51.8c0.1-0.1,0.1-0.2,0.2-0.4C104.2,51.6,104.1,51.7,104.1,51.8z"/>
				<path class="st1" d="M104.1,55.8c-0.7,0-1.4-0.2-2-0.5c-1.2-0.7-1.9-2-1.9-3.4c0-0.7,0.2-1.4,0.5-2l0-0.1
					c0.1-0.1,0.1-0.3,0.2-0.4c1.2-1.8,3.6-2.4,5.4-1.2c1.8,1.1,2.4,3.6,1.3,5.4l-0.1,0.2c0,0-0.1,0.1-0.1,0.1
					C106.7,55.1,105.4,55.8,104.1,55.8z"/>
			</g>
			<g>
				<path class="st1" d="M105.2,50.2c0.1-0.1,0.2-0.3,0.3-0.4C105.3,50,105.3,50.1,105.2,50.2z"/>
				<path class="st1" d="M105.2,54.1c-0.8,0-1.7-0.3-2.4-0.8c-1-0.8-1.6-1.9-1.6-3.1c0-0.8,0.3-1.7,0.8-2.4l0,0
					c0.1-0.2,0.2-0.3,0.3-0.5c1.3-1.7,3.8-2,5.5-0.6c1.7,1.3,2,3.8,0.6,5.5l-0.2,0.3C107.5,53.6,106.3,54.1,105.2,54.1z"/>
			</g>
			<g>
				<path class="st1" d="M200.7,145.4c-0.1,0.1-0.3,0.2-0.4,0.3C200.4,145.6,200.6,145.5,200.7,145.4z"/>
				<path class="st1" d="M200.3,149.7c-1.2,0-2.4-0.6-3.2-1.6c-0.5-0.7-0.7-1.5-0.7-2.3c0-1.2,0.6-2.4,1.6-3.2l0.3-0.2
					c1.7-1.3,4.2-1,5.5,0.7c0.6,0.7,0.8,1.6,0.8,2.4c0,1.2-0.5,2.3-1.5,3.1c-0.1,0.1-0.3,0.2-0.4,0.3l-0.1,0.1
					C201.9,149.4,201.1,149.7,200.3,149.7z"/>
			</g>
			<g>
				<path class="st1" d="M103.2,53.6c0-0.1,0.1-0.2,0.1-0.2C103.2,53.4,103.2,53.5,103.2,53.6z"/>
				<path class="st1" d="M103.2,57.4c-0.5,0-1.1-0.1-1.6-0.4c-1.4-0.7-2.3-2.1-2.3-3.5c0-0.5,0.1-1.1,0.4-1.6l0.1-0.2
					c0.9-1.9,3.3-2.8,5.2-1.9c1.4,0.7,2.2,2.1,2.2,3.5c0,0.6-0.1,1.1-0.4,1.7c0,0,0,0.1-0.1,0.1C106.1,56.6,104.7,57.4,103.2,57.4z"
					/>
			</g>
			<g>
				<path class="st1" d="M198.7,146.8c-0.1,0-0.1,0.1-0.2,0.1C198.5,146.9,198.6,146.8,198.7,146.8z"/>
				<path class="st1" d="M198.5,150.8c-1.4,0-2.7-0.7-3.5-2.1c-0.3-0.6-0.5-1.2-0.5-1.9c0-1.4,0.7-2.7,2-3.4c0.1,0,0.2-0.1,0.2-0.1
					c1.9-1.1,4.3-0.4,5.3,1.5c0.3,0.6,0.5,1.3,0.5,1.9c0,1.4-0.7,2.7-2,3.4c-0.1,0.1-0.2,0.1-0.3,0.2
					C199.7,150.7,199.1,150.8,198.5,150.8z"/>
			</g>
		</g>
		<g>
			<path class="st1" d="M112.5,207.7c-2.1,0-4.2-0.6-6.1-1.7c-2.8-1.6-4.7-4.3-5.5-7.4c0-0.1,0-0.1,0-0.2l-3.3-17.2
				c-0.4-2.1,1-4.2,3.1-4.6c2.1-0.4,4.2,1,4.6,3.1l3.3,17.1c0.3,1,0.9,1.9,1.8,2.4c0.9,0.6,2,0.7,3.1,0.4l32.3-8.4
				c2.1-0.6,3.4-2.8,2.9-4.9c0,0,0-0.1,0-0.1l-4.5-20.9c-0.5-2.1,0.9-4.2,3-4.7c2.1-0.5,4.2,0.9,4.7,3l4.5,20.9
				c1.5,6.3-2.3,12.7-8.5,14.3l-32.3,8.4C114.6,207.6,113.5,207.7,112.5,207.7z"/>
		</g>
	</g>
</g>
</svg>
