<?xml version="1.0" encoding="utf-8"?>
<!-- Generator: Adobe Illustrator 26.2.1, SVG Export Plug-In . SVG Version: 6.00 Build 0)  -->
<svg version="1.1" id="Camada_1" xmlns="http://www.w3.org/2000/svg" xmlns:xlink="http://www.w3.org/1999/xlink" x="0px" y="0px"
	 viewBox="0 0 255 419" style="enable-background:new 0 0 255 419;" xml:space="preserve">
<style type="text/css">
	.st0{fill:#EF0094;}
	.st1{clip-path:url(#SVGID_00000131340881719718269850000000816542117877078684_);}
	.st2{fill:#FFFFFF;}
	.st3{fill:#FF00FF;}
</style>
<g>
	<g>
		<g>
			<path class="st0" d="M41,216.2L41,216.2l70.7,192c5.1,13.9,24.7,13.9,29.9,0.1L214,216.2h0c-22.3,21.8-52.8,35.3-86.5,35.3
				S63.3,238,41,216.2z"/>
		</g>
	</g>
	<circle class="st0" cx="127.5" cy="127.9" r="123.6"/>
	<g>
		<defs>
			<circle id="SVGID_1_" cx="127.5" cy="127.9" r="127.5"/>
		</defs>
		<clipPath id="SVGID_00000104675576527142391060000000287734717416070282_">
			<use xlink:href="#SVGID_1_"  style="overflow:visible;"/>
		</clipPath>
		<g style="clip-path:url(#SVGID_00000104675576527142391060000000287734717416070282_);">
			<g>
				<g>
					<g>
						<path class="st2" d="M150.7,294.8c-7.7,0-15.3-3.4-22.8-10.2c0,0-0.1-0.1-0.1-0.1c-4.8-4.8-25.1-64-30.5-105.3
							c-3.5-26.6,0-51.5,1.9-64.8c0.5-3.2,0.8-5.7,1-7.5c0.8-9-1-27-1-27.1c-0.2-2.2,1.4-4.1,3.5-4.3c2.1-0.2,4.1,1.4,4.3,3.5
							c0.1,0.8,1.9,18.9,1,28.6c-0.2,1.9-0.5,4.6-1,7.9c-1.8,13-5.3,37.2-1.9,62.7c5.2,40,24.7,95.7,28.3,100.8
							c11.8,10.7,22.8,10.7,34.6,0c3.6-5.1,23.1-60.7,28.3-100.8c3.3-25.5-0.1-49.7-1.9-62.7c-0.5-3.3-0.8-5.9-1-7.9
							c-0.8-9.7,1-27.8,1-28.6c0.2-2.2,2.1-3.7,4.3-3.5c2.2,0.2,3.7,2.1,3.5,4.3c0,0.2-1.8,18.2-1,27.1c0.2,1.7,0.5,4.3,1,7.5
							c1.9,13.4,5.4,38.3,1.9,64.8c-5.4,41.3-25.7,100.4-30.5,105.3c0,0-0.1,0.1-0.1,0.1C166.1,291.4,158.4,294.8,150.7,294.8z"/>
					</g>
					<g>
						<path class="st2" d="M150.7,294.8c-7.7,0-15.3-3.4-22.8-10.2c0,0-0.1-0.1-0.1-0.1c-4.8-4.8-25.1-64-30.5-105.3
							c-3.5-26.6,0-51.5,1.9-64.8c0.5-3.2,0.8-5.7,1-7.5c0.8-9-1-27-1-27.1c-0.2-2.2,1.4-4.1,3.5-4.3c2.1-0.2,4.1,1.4,4.3,3.5
							c0.1,0.8,1.9,18.9,1,28.6c-0.2,1.9-0.5,4.6-1,7.9c-1.8,13-5.3,37.2-1.9,62.7c5.2,40,24.7,95.7,28.3,100.8
							c11.8,10.7,22.8,10.7,34.6,0c3.6-5.1,23.1-60.7,28.3-100.8c3.3-25.5-0.1-49.7-1.9-62.7c-0.5-3.3-0.8-5.9-1-7.9
							c-0.8-9.7,1-27.8,1-28.6c0.2-2.2,2.1-3.7,4.3-3.5c2.2,0.2,3.7,2.1,3.5,4.3c0,0.2-1.8,18.2-1,27.1c0.2,1.7,0.5,4.3,1,7.5
							c1.9,13.4,5.4,38.3,1.9,64.8c-5.4,41.3-25.7,100.4-30.5,105.3c0,0-0.1,0.1-0.1,0.1C166.1,291.4,158.4,294.8,150.7,294.8z"/>
					</g>
					<g>
						<path class="st2" d="M150.7,91.5c-16.6,0-33.1-3.5-49.6-10.4c-6.3-2.6-9.4-9.7-7.2-16.1l2.7-7.8c0.7-2,2.9-3.1,5-2.4
							c2,0.7,3.1,2.9,2.4,5l-2.7,7.8c-0.9,2.5,0.4,5.3,2.9,6.3c30.9,13,62.2,13,93.1,0c2.5-1,3.7-3.8,2.9-6.3l-2.7-7.8
							c-0.7-2,0.4-4.3,2.4-5c2.1-0.7,4.3,0.4,5,2.4l2.7,7.8c2.2,6.4-1,13.5-7.2,16.1C183.9,88,167.3,91.5,150.7,91.5z"/>
					</g>
					<g>
						<ellipse class="st2" cx="150.7" cy="58.4" rx="50.4" ry="12.4"/>
						<path class="st2" d="M150.7,74.7c-20.2,0-54.3-3.4-54.3-16.3c0-12.9,34.2-16.3,54.3-16.3c20.2,0,54.3,3.4,54.3,16.3
							C205.1,71.3,170.9,74.7,150.7,74.7z M104.4,58.4c1.7,2.2,15.2,8.4,46.4,8.4s44.6-6.3,46.4-8.4c-1.7-2.2-15.2-8.4-46.4-8.4
							C119.5,50,106.1,56.2,104.4,58.4z M197.3,58.6L197.3,58.6L197.3,58.6z"/>
					</g>
					<g>
						<path class="st2" d="M204,111.2h-6.7c-2.2,0-3.9-1.8-3.9-3.9s1.8-3.9,3.9-3.9h6.7c1.9,0,3.5-1.5,3.5-3.5V78.4l-6.2-7.8
							c-1.4-1.7-1.1-4.2,0.6-5.5c1.7-1.4,4.2-1.1,5.5,0.6l7,8.8c0.6,0.7,0.9,1.6,0.9,2.4v22.8C215.3,106.1,210.3,111.2,204,111.2z"
							/>
					</g>
					<g>
						<path class="st2" d="M104.2,111.2h-6.7c-6.2,0-11.3-5.1-11.3-11.3V77c0-0.9,0.3-1.8,0.9-2.4l7-8.8c1.4-1.7,3.8-2,5.5-0.6
							c1.7,1.4,2,3.8,0.6,5.5L94,78.4v21.5c0,1.9,1.5,3.5,3.5,3.5h6.7c2.2,0,3.9,1.8,3.9,3.9S106.3,111.2,104.2,111.2z"/>
					</g>
					<g>
						<g>
							<line class="st2" x1="125.5" y1="78" x2="125.5" y2="118.5"/>
							<path class="st2" d="M125.5,122.4c-2.2,0-3.9-1.8-3.9-3.9V78c0-2.2,1.8-3.9,3.9-3.9s3.9,1.8,3.9,3.9v40.5
								C129.4,120.6,127.6,122.4,125.5,122.4z"/>
						</g>
						<g>
							<line class="st2" x1="176" y1="78" x2="176" y2="118.5"/>
							<path class="st2" d="M176,122.4c-2.2,0-3.9-1.8-3.9-3.9V78c0-2.2,1.8-3.9,3.9-3.9s3.9,1.8,3.9,3.9v40.5
								C179.9,120.6,178.2,122.4,176,122.4z"/>
						</g>
					</g>
					<g>
						<path class="st2" d="M150.7,151.3c-17.3,0-34.6-4-51.7-12.1c-2-0.9-2.8-3.3-1.9-5.2c0.9-2,3.3-2.8,5.2-1.9
							c32.1,15.1,64.7,15.1,96.8,0c2-0.9,4.3-0.1,5.2,1.9c0.9,2,0.1,4.3-1.9,5.2C185.3,147.3,168,151.3,150.7,151.3z"/>
					</g>
					<g>
						<path class="st2" d="M150.7,217.6c-14.6,0-29.2-3.2-46.2-9.6c-2-0.8-3.1-3-2.3-5c0.8-2,3-3.1,5-2.3
							c32.5,12.2,54.4,12.2,86.9,0c2-0.8,4.3,0.3,5,2.3c0.8,2-0.3,4.3-2.3,5C179.9,214.4,165.3,217.6,150.7,217.6z"/>
					</g>
				</g>
				<g>
					<circle class="st3" cx="125.5" cy="118.5" r="7.7"/>
					<path class="st2" d="M125.5,130.1c-6.4,0-11.6-5.2-11.6-11.6c0-6.4,5.2-11.6,11.6-11.6c6.4,0,11.6,5.2,11.6,11.6
						C137.1,124.9,131.9,130.1,125.5,130.1z M125.5,114.7c-2.1,0-3.8,1.7-3.8,3.8c0,2.1,1.7,3.8,3.8,3.8s3.8-1.7,3.8-3.8
						C129.2,116.4,127.5,114.7,125.5,114.7z"/>
				</g>
				<g>
					<circle class="st0" cx="176" cy="118.5" r="7.7"/>
					<path class="st2" d="M176,130.1c-6.4,0-11.6-5.2-11.6-11.6c0-6.4,5.2-11.6,11.6-11.6c6.4,0,11.6,5.2,11.6,11.6
						C187.6,124.9,182.4,130.1,176,130.1z M176,114.7c-2.1,0-3.8,1.7-3.8,3.8c0,2.1,1.7,3.8,3.8,3.8c2.1,0,3.8-1.7,3.8-3.8
						C179.8,116.4,178.1,114.7,176,114.7z"/>
				</g>
			</g>
			<g>
				<g>
					<g>
						<path class="st2" d="M51.8,134.1c0,0,1.7,16.9,0.9,25.5s-6.5,35.8-2.7,65.3c4.9,37.5,23.5,90.8,26.8,94.1
							c12.3,11.2,24.5,11.2,36.8,0c3.4-3.4,21.9-56.6,26.8-94.1c3.9-29.5-1.9-56.7-2.7-65.3c-0.7-8.6,0.9-25.5,0.9-25.5"/>
						<path class="st2" d="M95.3,331.4c-7.1,0-14.2-3.2-21.1-9.5c0,0-0.1-0.1-0.1-0.1c-5-5-23.3-60.5-28-96.4
							c-3.2-24.3,0-47.1,1.8-59.3c0.4-2.9,0.7-5.2,0.9-6.8c0.7-8.1-0.9-24.6-0.9-24.7c-0.2-2.2,1.4-4.1,3.5-4.3
							c2.2-0.2,4.1,1.4,4.3,3.5c0.1,0.7,1.7,17.3,0.9,26.2c-0.2,1.8-0.5,4.2-0.9,7.2c-1.7,11.9-4.8,34-1.8,57.2
							c2.8,21.1,9.6,45.5,13.5,58.1c6.1,20.1,11,31.9,12.3,33.8c10.6,9.6,20.5,9.6,31.1,0c1.3-1.9,6.2-13.8,12.3-33.8
							c3.9-12.6,10.7-37,13.5-58.1c3-23.3-0.1-45.4-1.8-57.2c-0.4-3-0.8-5.4-0.9-7.2c-0.8-8.9,0.9-25.5,0.9-26.2
							c0.2-2.2,2.1-3.7,4.3-3.5c2.2,0.2,3.7,2.1,3.5,4.3c0,0.2-1.6,16.6-0.9,24.7c0.1,1.6,0.5,3.9,0.9,6.8c1.7,12.2,5,35,1.8,59.3
							c-4.7,35.9-23,91.4-28,96.4c0,0-0.1,0.1-0.1,0.1C109.5,328.3,102.4,331.4,95.3,331.4z"/>
					</g>
					<g>
						<path class="st0" d="M51.8,134.1c0,0,1.7,16.9,0.9,25.5s-6.5,35.8-2.7,65.3c4.9,37.5,23.5,90.8,26.8,94.1
							c12.3,11.2,24.5,11.2,36.8,0c3.4-3.4,21.9-56.6,26.8-94.1c3.9-29.5-1.9-56.7-2.7-65.3c-0.7-8.6,0.9-25.5,0.9-25.5"/>
						<path class="st2" d="M95.3,331.4c-7.1,0-14.2-3.2-21.1-9.5c0,0-0.1-0.1-0.1-0.1c-5-5-23.3-60.5-28-96.4
							c-3.2-24.3,0-47.1,1.8-59.3c0.4-2.9,0.7-5.2,0.9-6.8c0.7-8.1-0.9-24.6-0.9-24.7c-0.2-2.2,1.4-4.1,3.5-4.3
							c2.2-0.2,4.1,1.4,4.3,3.5c0.1,0.7,1.7,17.3,0.9,26.2c-0.2,1.8-0.5,4.2-0.9,7.2c-1.7,11.9-4.8,34-1.8,57.2
							c2.8,21.1,9.6,45.5,13.5,58.1c6.1,20.1,11,31.9,12.3,33.8c10.6,9.6,20.5,9.6,31.1,0c1.3-1.9,6.2-13.8,12.3-33.8
							c3.9-12.6,10.7-37,13.5-58.1c3-23.3-0.1-45.4-1.8-57.2c-0.4-3-0.8-5.4-0.9-7.2c-0.8-8.9,0.9-25.5,0.9-26.2
							c0.2-2.2,2.1-3.7,4.3-3.5c2.2,0.2,3.7,2.1,3.5,4.3c0,0.2-1.6,16.6-0.9,24.7c0.1,1.6,0.5,3.9,0.9,6.8c1.7,12.2,5,35,1.8,59.3
							c-4.7,35.9-23,91.4-28,96.4c0,0-0.1,0.1-0.1,0.1C109.5,328.3,102.4,331.4,95.3,331.4z"/>
					</g>
					<g>
						<path class="st0" d="M141.4,115l2.5,7.1c1.4,4.1-0.6,8.6-4.6,10.2c-29.3,12.4-58.6,12.4-87.8,0c-4-1.7-6-6.1-4.6-10.2l2.5-7.1
							"/>
						<path class="st2" d="M95.3,145.5c-15.2,0-30.4-3.2-45.5-9.6c-5.9-2.5-8.9-9.1-6.8-15.1l2.5-7.1c0.7-2,2.9-3.1,5-2.4
							c2,0.7,3.1,2.9,2.4,5l-2.5,7.1c-0.7,2.1,0.3,4.5,2.4,5.3c28.1,11.9,56.7,11.9,84.8,0c2.1-0.9,3.2-3.2,2.4-5.3l-2.5-7.1
							c-0.7-2,0.4-4.3,2.4-5c2-0.7,4.3,0.4,5,2.4l2.5,7.1c2.1,6-0.9,12.6-6.8,15.1C125.7,142.3,110.5,145.5,95.3,145.5z"/>
					</g>
					<g>
						<ellipse class="st2" cx="95.3" cy="115" rx="46.1" ry="11.3"/>
						<path class="st2" d="M95.3,130.2c-12.6,0-24.5-1.2-33.5-3.4c-11.1-2.7-16.5-6.6-16.5-11.8c0-5.2,5.4-9.1,16.5-11.8
							c9-2.2,20.9-3.4,33.5-3.4s24.5,1.2,33.5,3.4c11.1,2.7,16.5,6.6,16.5,11.8c0,5.2-5.4,9.1-16.5,11.8
							C119.8,129,107.9,130.2,95.3,130.2z M53.3,115c2.5,2.8,17.7,7.4,42,7.4s39.4-4.6,42-7.4c-2.5-2.8-17.7-7.4-42-7.4
							S55.9,112.1,53.3,115z M137.5,115.3L137.5,115.3L137.5,115.3z"/>
					</g>
					<g>
						<path class="st2" d="M144,163.5h-6.1c-2.2,0-3.9-1.8-3.9-3.9s1.8-3.9,3.9-3.9h6.1c1.6,0,2.8-1.3,2.8-2.8v-19.5l-5.6-7
							c-1.4-1.7-1.1-4.2,0.6-5.5c1.7-1.4,4.2-1.1,5.5,0.6l6.4,8.1c0.6,0.7,0.9,1.6,0.9,2.4v20.9C154.7,158.8,149.9,163.5,144,163.5z
							"/>
					</g>
					<g>
						<path class="st2" d="M52.7,163.5h-6.1c-5.9,0-10.7-4.8-10.7-10.7V132c0-0.9,0.3-1.8,0.9-2.4l6.4-8.1c1.4-1.7,3.8-2,5.5-0.6
							c1.7,1.4,2,3.8,0.6,5.5l-5.6,7v19.5c0,1.6,1.3,2.8,2.8,2.8h6.1c2.2,0,3.9,1.8,3.9,3.9S54.9,163.5,52.7,163.5z"/>
					</g>
					<g>
						<g>
							<line class="st2" x1="72.2" y1="132.9" x2="72.2" y2="169.9"/>
							<path class="st2" d="M72.2,173.8c-2.2,0-3.9-1.8-3.9-3.9v-37c0-2.2,1.8-3.9,3.9-3.9s3.9,1.8,3.9,3.9v37
								C76.1,172,74.3,173.8,72.2,173.8z"/>
						</g>
						<g>
							<line class="st2" x1="118.4" y1="132.9" x2="118.4" y2="169.9"/>
							<path class="st2" d="M118.4,173.8c-2.2,0-3.9-1.8-3.9-3.9v-37c0-2.2,1.8-3.9,3.9-3.9s3.9,1.8,3.9,3.9v37
								C122.3,172,120.6,173.8,118.4,173.8z"/>
						</g>
					</g>
					<g>
						<path class="st2" d="M95.3,200.2c-15.8,0-31.7-3.7-47.4-11.1c-2-0.9-2.8-3.3-1.9-5.2c0.9-2,3.3-2.8,5.2-1.9
							c29.2,13.7,58.9,13.7,88.2,0c2-0.9,4.3-0.1,5.2,1.9c0.9,2,0.1,4.3-1.9,5.2C127,196.5,111.1,200.2,95.3,200.2z"/>
					</g>
					<g>
						<path class="st2" d="M95.3,260.8c-13.4,0-26.7-2.9-42.4-8.8c-2-0.8-3.1-3-2.3-5c0.8-2,3-3.1,5-2.3c29.6,11.1,49.6,11.1,79.2,0
							c2-0.8,4.3,0.3,5,2.3c0.8,2-0.3,4.3-2.3,5C122,257.9,108.6,260.8,95.3,260.8z"/>
					</g>
				</g>
				<g>
					<circle class="st0" cx="72.2" cy="169.9" r="7"/>
					<path class="st2" d="M72.2,180.8c-6,0-11-4.9-11-11s4.9-11,11-11c6,0,11,4.9,11,11S78.2,180.8,72.2,180.8z M72.2,166.8
						c-1.7,0-3.1,1.4-3.1,3.1s1.4,3.1,3.1,3.1c1.7,0,3.1-1.4,3.1-3.1S73.9,166.8,72.2,166.8z"/>
				</g>
				<g>
					<circle class="st0" cx="118.4" cy="169.9" r="7"/>
					<path class="st2" d="M118.4,180.8c-6,0-11-4.9-11-11s4.9-11,11-11c6,0,11,4.9,11,11S124.4,180.8,118.4,180.8z M118.4,166.8
						c-1.7,0-3.1,1.4-3.1,3.1s1.4,3.1,3.1,3.1c1.7,0,3.1-1.4,3.1-3.1S120.1,166.8,118.4,166.8z"/>
				</g>
			</g>
		</g>
	</g>
	<path class="st2" d="M127.5,255.4C57.2,255.4,0,198.2,0,127.9S57.2,0.4,127.5,0.4S255,57.6,255,127.9S197.8,255.4,127.5,255.4z
		 M127.5,8.3C61.5,8.3,7.8,61.9,7.8,127.9s53.7,119.7,119.7,119.7s119.7-53.7,119.7-119.7S193.5,8.3,127.5,8.3z"/>
</g>
</svg>
