<?xml version="1.0" encoding="utf-8"?>
<!-- Generator: Adobe Illustrator 26.2.1, SVG Export Plug-In . SVG Version: 6.00 Build 0)  -->
<svg version="1.1" id="Camada_1" xmlns="http://www.w3.org/2000/svg" xmlns:xlink="http://www.w3.org/1999/xlink" x="0px" y="0px"
	 viewBox="0 0 255 419" style="enable-background:new 0 0 255 419;" xml:space="preserve">
<style type="text/css">
	.st0{fill:#0096FF;}
	.st1{fill:#FFFFFF;}
	.st2{clip-path:url(#SVGID_00000077315064195831945520000017789028661007392696_);}
</style>
<g>
	<g>
		<g>
			<path class="st0" d="M41,216.2L41,216.2l70.7,192c5.1,13.9,24.7,13.9,29.9,0.1L214,216.2h0c-22.3,21.8-52.8,35.3-86.5,35.3
				S63.3,238,41,216.2z"/>
		</g>
	</g>
	<circle class="st0" cx="127.5" cy="127.9" r="123.6"/>
	<circle class="st0" cx="127.5" cy="127.9" r="123.6"/>
	<path class="st1" d="M127.5,255.4C57.2,255.4,0,198.2,0,127.9S57.2,0.4,127.5,0.4S255,57.6,255,127.9S197.8,255.4,127.5,255.4z
		 M127.5,8.3C61.5,8.3,7.8,61.9,7.8,127.9s53.7,119.7,119.7,119.7s119.7-53.7,119.7-119.7S193.5,8.3,127.5,8.3z"/>
	<g>
		<defs>
			<circle id="SVGID_1_" cx="127.5" cy="127.9" r="123.6"/>
		</defs>
		<clipPath id="SVGID_00000129919258824337653810000000083555873085369263_">
			<use xlink:href="#SVGID_1_"  style="overflow:visible;"/>
		</clipPath>
		<g style="clip-path:url(#SVGID_00000129919258824337653810000000083555873085369263_);">
			<g>
				<g>
					<g>
						<polygon class="st1" points="60.3,203.1 19,227 19,177.4 38.8,165.9 						"/>
						<path class="st1" d="M19,230.9c-0.7,0-1.4-0.2-2-0.5c-1.2-0.7-2-2-2-3.4l0-49.6c0-1.4,0.7-2.7,2-3.4l19.9-11.5
							c1.9-1.1,4.3-0.4,5.4,1.4l21.5,37.2c0.5,0.9,0.7,2,0.4,3c-0.3,1-0.9,1.9-1.8,2.4L21,230.4C20.4,230.7,19.7,230.9,19,230.9z
							 M22.9,179.6l0,40.6l32-18.5l-17.6-30.4L22.9,179.6z"/>
					</g>
					<g>
						<path class="st1" d="M109.3,186.8c-1.9,0-3.8-0.2-5.4-0.3l-0.7-0.1c-5.4-0.5-18.8-5.4-20.3-6c-2-0.7-3.1-3-2.3-5
							c0.7-2,3-3.1,5-2.3c5.4,2,15.1,5.2,18.4,5.6l0.7,0.1c2.6,0.3,7.5,0.8,9-0.7c0.4-0.4,0.6-1.3,0.6-2.5
							c-0.2-4.9-5.9-6.6-12.7-8.3c-1.2-0.3-2.4-0.6-3.4-0.9c-2.4-0.7-5-1.8-7.5-2.9c-3.8-1.6-8-3.4-10.7-3.4c0,0,0,0,0,0
							c-4.8,0-8.3,1.9-12.7,4.3c-1.9,1-3.9,2.1-6.2,3.2c-11.7,5.2-19.7,5.8-20.1,5.8c-2.1,0.1-4-1.5-4.1-3.7c-0.1-2.2,1.5-4,3.7-4.1
							c0.1,0,7.1-0.5,17.3-5.1c2-0.9,3.9-1.9,5.7-2.9c4.8-2.6,9.7-5.3,16.5-5.3c0,0,0,0,0,0c4.2,0,9,2,13.7,4c2.4,1,4.7,2,6.7,2.6
							c0.8,0.2,1.8,0.5,3,0.8c6.4,1.5,18.3,4.4,18.7,15.6c0.2,3.6-0.9,6.5-3,8.5C116.5,186.1,112.8,186.8,109.3,186.8z"/>
					</g>
					<g>
						<path class="st1" d="M100.6,205.4c-3.8,0-9.9-1.7-16.3-3.5c-4.3-1.2-9.3-2.6-11.2-2.6c-3.1-0.1-9.9,2.3-13.4,3.8
							c-2,0.8-4.3-0.1-5.1-2.1c-0.8-2,0.1-4.3,2.1-5.1c1.1-0.5,11-4.6,16.7-4.4c2.8,0.1,7.5,1.4,13,2.9c5.1,1.4,11.5,3.2,14.2,3.2
							c6.9,0,54.7-8.8,59-10l0.2-0.1c2.6-1,3.4-1.8,3-4c-0.4-2.2-6.1-1.9-7.2-1.9c-1.3,0.1-3,0.2-5,0.4c-8.5,0.8-22.8,2.2-32.9,0.7
							c-2.1-0.3-3.6-2.3-3.3-4.4c0.3-2.1,2.3-3.6,4.4-3.3c9.1,1.3,22.8,0,31-0.8c2.1-0.2,3.9-0.4,5.2-0.5c12.2-0.9,15,4.9,15.5,8.5
							c0.6,4.1-0.2,9.6-7.9,12.6l-0.3,0.1C159.6,196,108.5,205.4,100.6,205.4z M159.5,187.6C159.5,187.6,159.5,187.6,159.5,187.6
							L159.5,187.6z"/>
					</g>
				</g>
				<g>
					<g>
						<polygon class="st1" points="194.7,52.7 236,28.8 236,78.5 216.2,89.9 						"/>
						<path class="st1" d="M216.2,93.8c-1.4,0-2.7-0.7-3.4-2l-21.5-37.2c-0.5-0.9-0.7-2-0.4-3c0.3-1,0.9-1.9,1.8-2.4L234,25.4
							c1.2-0.7,2.7-0.7,3.9,0c1.2,0.7,2,2,2,3.4l0,49.6c0,1.4-0.7,2.7-2,3.4l-19.9,11.5C217.5,93.7,216.8,93.8,216.2,93.8z
							 M200,54.1l17.6,30.4l14.5-8.4l0-40.6L200,54.1z"/>
					</g>
					<g>
						<path class="st1" d="M174.9,103.6c-4.2,0-9-2-13.7-4c-2.4-1-4.7-2-6.7-2.6c-0.8-0.2-1.8-0.5-3-0.8
							c-6.4-1.5-18.3-4.4-18.7-15.6c-0.2-3.6,0.9-6.5,3-8.5c4.1-3.9,10.8-3.2,15.2-2.8l0.7,0.1c5.4,0.5,18.8,5.4,20.3,6
							c2,0.7,3.1,3,2.3,5c-0.7,2-3,3.1-5,2.3c-5.4-2-15.1-5.2-18.4-5.6l-0.7-0.1c-2.6-0.3-7.5-0.8-9,0.7c-0.4,0.4-0.6,1.3-0.6,2.5
							c0.2,4.9,5.9,6.6,12.7,8.3c1.2,0.3,2.4,0.6,3.4,0.9c2.4,0.7,5,1.8,7.5,2.9c3.8,1.6,8,3.4,10.7,3.4c0,0,0,0,0,0
							c4.8,0,8.3-1.9,12.7-4.3c1.9-1,3.9-2.1,6.2-3.2c11.7-5.2,19.7-5.8,20.1-5.8c2.1-0.1,4,1.5,4.1,3.7c0.1,2.2-1.5,4-3.7,4.1
							c-0.1,0-7.1,0.5-17.3,5.1c-2,0.9-3.9,1.9-5.7,2.9C186.6,101,181.7,103.6,174.9,103.6C174.9,103.6,174.9,103.6,174.9,103.6z"/>
					</g>
					<g>
						<path class="st1" d="M97.7,82.1c-10.2,0-12.7-5.3-13.2-8.5c-0.6-4.1,0.2-9.6,7.9-12.6l0.3-0.1c2.8-1.1,53.9-10.5,61.7-10.5
							c3.8,0,9.9,1.7,16.3,3.5c4.3,1.2,9.3,2.6,11.2,2.6c0.1,0,0.1,0,0.2,0c3.2,0,9.7-2.3,13.2-3.8c2-0.8,4.3,0.1,5.1,2.1
							c0.8,2-0.1,4.3-2.1,5.1c-1.1,0.5-11,4.6-16.7,4.4c-2.8-0.1-7.5-1.4-13-2.9c-5.1-1.4-11.5-3.2-14.2-3.2c-6.9,0-54.7,8.8-59,10
							l-0.2,0.1c-2.6,1-3.4,1.8-3,4c0.4,2.2,6.1,1.9,7.2,1.9c1.3-0.1,3-0.2,5-0.4c8.5-0.8,22.8-2.2,32.9-0.7
							c2.1,0.3,3.6,2.3,3.3,4.4c-0.3,2.1-2.3,3.6-4.4,3.3c-9.1-1.3-22.8,0-31,0.8c-2.1,0.2-3.9,0.4-5.2,0.5
							C99.2,82.1,98.4,82.1,97.7,82.1z M95.6,68.2L95.6,68.2C95.5,68.2,95.5,68.2,95.6,68.2z"/>
					</g>
				</g>
				<g>
					<path class="st1" d="M72,131.8c-2.2,0-3.9-1.8-3.9-3.9c0-23.2,13.7-44.3,34.9-53.7c2-0.9,4.3,0,5.2,2c0.9,2,0,4.3-2,5.2
						c-18.4,8.2-30.2,26.5-30.2,46.6C75.9,130,74.2,131.8,72,131.8z"/>
				</g>
				<g>
					<path class="st1" d="M149.6,181.8c-1.5,0-2.9-0.9-3.6-2.3c-0.9-2,0-4.3,1.9-5.2c18.1-8.3,29.8-26.5,29.8-46.4
						c0-2.2,1.8-3.9,3.9-3.9s3.9,1.8,3.9,3.9c0,23-13.5,44-34.4,53.5C150.7,181.7,150.2,181.8,149.6,181.8z"/>
				</g>
				<g>
					<path class="st1" d="M72,132.6c-1,0-2-0.4-2.8-1.1l-9.7-9.7c-1.5-1.5-1.5-4,0-5.5c1.5-1.5,4-1.5,5.5,0l6.9,6.9l6.9-6.9
						c1.5-1.5,4-1.5,5.5,0c1.5,1.5,1.5,4,0,5.5l-9.7,9.7C74,132.2,73,132.6,72,132.6z"/>
				</g>
				<g>
					<path class="st1" d="M191.4,141.5c-1,0-2-0.4-2.8-1.1l-6.9-6.9l-6.9,6.9c-1.5,1.5-4,1.5-5.5,0c-1.5-1.5-1.5-4,0-5.5l9.7-9.7
						c1.5-1.5,4-1.5,5.5,0l9.7,9.7c1.5,1.5,1.5,4,0,5.5C193.4,141.1,192.4,141.5,191.4,141.5z"/>
				</g>
			</g>
			<g>
				<path class="st1" d="M49.2,171.6c-1.4,0-2.8-0.8-3.5-2.1c-6.6-13-10-27-10-41.6c0-50.6,41.2-91.7,91.7-91.7
					c21.3,0,42,7.4,58.4,20.9c1.7,1.4,1.9,3.9,0.5,5.5c-1.4,1.7-3.9,1.9-5.5,0.5c-15-12.4-33.9-19.2-53.4-19.2
					c-46.3,0-83.9,37.6-83.9,83.9c0,13.4,3.1,26.2,9.1,38c1,1.9,0.2,4.3-1.7,5.3C50.4,171.5,49.8,171.6,49.2,171.6z"/>
			</g>
			<g>
				<path class="st1" d="M127.5,219.6c-21.4,0-42.2-7.5-58.6-21.2c-1.7-1.4-1.9-3.9-0.5-5.5c1.4-1.7,3.9-1.9,5.5-0.5
					c15,12.5,34,19.4,53.6,19.4c46.3,0,83.9-37.6,83.9-83.9c0-13.4-3.1-26.2-9.1-38c-1-1.9-0.2-4.3,1.7-5.3c1.9-1,4.3-0.2,5.3,1.7
					c6.6,12.9,9.9,26.9,9.9,41.6C219.2,178.5,178.1,219.6,127.5,219.6z"/>
			</g>
		</g>
	</g>
</g>
</svg>
