<?xml version="1.0" encoding="utf-8"?>
<!-- Generator: Adobe Illustrator 26.2.1, SVG Export Plug-In . SVG Version: 6.00 Build 0)  -->
<svg version="1.1" id="Camada_1" xmlns="http://www.w3.org/2000/svg" xmlns:xlink="http://www.w3.org/1999/xlink" x="0px" y="0px"
	 viewBox="0 0 255 419" style="enable-background:new 0 0 255 419;" xml:space="preserve">
<style type="text/css">
	.st0{fill:#00D200;}
	.st1{fill:#FFFFFF;}
	.st2{clip-path:url(#SVGID_00000011743271570066352310000002263731381489286553_);}
</style>
<g>
	<g>
		<g>
			<path class="st0" d="M41,216.2L41,216.2l70.7,192c5.1,13.9,24.7,13.9,29.9,0.1L214,216.2h0c-22.3,21.8-52.8,35.3-86.5,35.3
				S63.3,238,41,216.2z"/>
		</g>
	</g>
	<circle class="st0" cx="127.5" cy="127.9" r="123.6"/>
	<path class="st1" d="M127.5,255.4C57.2,255.4,0,198.2,0,127.9S57.2,0.4,127.5,0.4S255,57.6,255,127.9S197.8,255.4,127.5,255.4z
		 M127.5,8.3C61.5,8.3,7.8,61.9,7.8,127.9s53.7,119.7,119.7,119.7s119.7-53.7,119.7-119.7S193.5,8.3,127.5,8.3z"/>
	<g>
		<defs>
			<circle id="SVGID_1_" cx="127.5" cy="127.9" r="123.6"/>
		</defs>
		<clipPath id="SVGID_00000070119003662956216840000008213162478136805540_">
			<use xlink:href="#SVGID_1_"  style="overflow:visible;"/>
		</clipPath>
		<g style="clip-path:url(#SVGID_00000070119003662956216840000008213162478136805540_);">
			<g>
				<path class="st1" d="M101.5,251.7c-1.6,0-2.9-1.3-2.9-2.9V215c0-1.6,1.3-2.9,2.9-2.9c1.6,0,2.9,1.3,2.9,2.9v33.7
					C104.5,250.4,103.1,251.7,101.5,251.7z"/>
			</g>
			<g>
				<g>
					<path class="st1" d="M39.1,217.9c-1.3,0-2.4-0.8-2.8-2.1c-0.5-1.6,0.4-3.2,2-3.7l176.7-52c1.6-0.5,3.2,0.4,3.7,2
						c0.5,1.6-0.4,3.2-2,3.7L40,217.8C39.7,217.9,39.4,217.9,39.1,217.9z"/>
				</g>
				<g>
					<polygon class="st1" points="215.9,215 215.9,173.4 70.3,215 					"/>
					<path class="st1" d="M215.9,217.9H70.3c-1.5,0-2.7-1.1-2.9-2.5c-0.2-1.5,0.7-2.8,2.1-3.2l145.5-41.6c0.9-0.3,1.8-0.1,2.6,0.5
						c0.7,0.6,1.2,1.4,1.2,2.3V215C218.8,216.6,217.5,217.9,215.9,217.9z M91.3,212.1h121.6v-34.7L91.3,212.1z"/>
				</g>
				<g>
					<path class="st1" d="M132.7,190.4c-1.6,0-2.9-1.3-2.9-2.9v-66c0-1.6,1.3-2.9,2.9-2.9h83.2c1.6,0,2.9,1.3,2.9,2.9V163
						c0,1.6-1.3,2.9-2.9,2.9c-1.6,0-2.9-1.3-2.9-2.9v-38.6h-77.3v63.1C135.6,189.1,134.3,190.4,132.7,190.4z"/>
				</g>
				<g>
					<path class="st1" d="M215.9,124.4c-1.6,0-2.9-1.3-2.9-2.9v-49h-56.5v49c0,1.6-1.3,2.9-2.9,2.9c-1.6,0-2.9-1.3-2.9-2.9v-52
						c0-1.6,1.3-2.9,2.9-2.9h62.4c1.6,0,2.9,1.3,2.9,2.9v52C218.8,123.1,217.5,124.4,215.9,124.4z"/>
				</g>
				<g>
					<path class="st1" d="M39.1,217.9c-1.6,0-2.9-1.3-2.9-2.9v-72.8c0-1.6,1.3-2.9,2.9-2.9h62.4c1.6,0,2.9,1.3,2.9,2.9v54.4
						c0,1.6-1.3,2.9-2.9,2.9c-1.6,0-2.9-1.3-2.9-2.9v-51.5H42.1V215C42.1,216.6,40.8,217.9,39.1,217.9z"/>
				</g>
				<g>
					<path class="st1" d="M80.7,145.2c-1.6,0-2.9-1.3-2.9-2.9V82.2l-35.7-8.9v69c0,1.6-1.3,2.9-2.9,2.9c-1.6,0-2.9-1.3-2.9-2.9V69.5
						c0-0.9,0.4-1.8,1.1-2.3c0.7-0.6,1.6-0.8,2.5-0.5L81.4,77c1.3,0.3,2.2,1.5,2.2,2.9v62.4C83.7,143.9,82.3,145.2,80.7,145.2z"/>
				</g>
				<g>
					<path class="st1" d="M59.9,77.6c-1.6,0-2.9-1.3-2.9-2.9V38.3c0-1.6,1.3-2.9,2.9-2.9c1.6,0,2.9,1.3,2.9,2.9v36.4
						C62.9,76.3,61.5,77.6,59.9,77.6z"/>
				</g>
				<g>
					<path class="st1" d="M101.5,124.4c-1.6,0-2.9-1.3-2.9-2.9v-52c0-1.6,1.3-2.9,2.9-2.9h28.2v-7.5c0-1.6,1.3-2.9,2.9-2.9h17.9
						V38.3c0-1.4,0.9-2.5,2.2-2.9L194.4,25c0.9-0.2,1.8,0,2.5,0.5c0.7,0.6,1.1,1.4,1.1,2.3v28.2h7.5c1.6,0,2.9,1.3,2.9,2.9v10.4
						c0,1.6-1.3,2.9-2.9,2.9s-2.9-1.3-2.9-2.9V62h-7.5c-1.6,0-2.9-1.3-2.9-2.9V31.6l-35.7,8.9v18.5c0,1.6-1.3,2.9-2.9,2.9h-17.9v7.5
						c0,1.6-1.3,2.9-2.9,2.9h-28.2v49C104.5,123.1,103.1,124.4,101.5,124.4z"/>
				</g>
				<g>
					<path class="st1" d="M132.7,62c-1.6,0-2.9-1.3-2.9-2.9V38.3c0-1.6,1.3-2.9,2.9-2.9c1.6,0,2.9,1.3,2.9,2.9v20.8
						C135.6,60.7,134.3,62,132.7,62z"/>
				</g>
				<g>
					<path class="st1" d="M132.7,176.4h-10.4c-1.6,0-2.9-1.3-2.9-2.9V166h-7.5c-1.6,0-2.9-1.3-2.9-2.9v-7.5h-7.5
						c-1.6,0-2.9-1.3-2.9-2.9c0-1.6,1.3-2.9,2.9-2.9h10.4c1.6,0,2.9,1.3,2.9,2.9v7.5h7.5c1.6,0,2.9,1.3,2.9,2.9v7.5h7.5
						c1.6,0,2.9,1.3,2.9,2.9C135.6,175,134.3,176.4,132.7,176.4z"/>
				</g>
				<g>
					<path class="st1" d="M91.1,145.2c-1.6,0-2.9-1.3-2.9-2.9v-10.4c0-1.6,1.3-2.9,2.9-2.9h7.5v-7.5c0-1.6,1.3-2.9,2.9-2.9h7.5V111
						c0-1.6,1.3-2.9,2.9-2.9h7.5v-7.5c0-1.6,1.3-2.9,2.9-2.9h7.5v-7.5c0-1.6,1.3-2.9,2.9-2.9h7.5v-7.5c0-1.6,1.3-2.9,2.9-2.9h10.4
						c1.6,0,2.9,1.3,2.9,2.9c0,1.6-1.3,2.9-2.9,2.9H146v7.5c0,1.6-1.3,2.9-2.9,2.9h-7.5v7.5c0,1.6-1.3,2.9-2.9,2.9h-7.5v7.5
						c0,1.6-1.3,2.9-2.9,2.9h-7.5v7.5c0,1.6-1.3,2.9-2.9,2.9h-7.5v7.5c0,1.6-1.3,2.9-2.9,2.9h-7.5v7.5
						C94.1,143.9,92.7,145.2,91.1,145.2z"/>
				</g>
				<g>
					<path class="st1" d="M95.8,51.6c-12.5,0-24.8-2.4-36.9-7.1c-1.5-0.6-2.3-2.3-1.7-3.8c0.6-1.5,2.3-2.3,3.8-1.7
						c22.9,9,46.7,9,70.7-0.2c1.5-0.6,3.2,0.2,3.8,1.7c0.6,1.5-0.2,3.2-1.7,3.8C121,49.2,108.3,51.6,95.8,51.6z"/>
				</g>
				<g>
					<polygon class="st1" points="205.5,69.5 205.5,59.1 195.1,59.1 195.1,27.9 153.5,38.3 153.5,59.1 132.7,59.1 132.7,69.5 
						101.5,69.5 101.5,121.4 111.9,121.4 111.9,111 122.3,111 122.3,100.6 132.7,100.6 132.7,90.2 143.1,90.2 143.1,79.9 
						153.5,79.9 153.5,69.5 					"/>
					<path class="st1" d="M114.8,124.4H98.6V66.5h31.2V56.1h20.8V36L198,24.1v32h10.4v16.3h-52v10.4H146v10.4h-10.4v10.4h-10.4V114
						h-10.4V124.4z M104.5,118.5h4.5v-10.4h10.4V97.7h10.4V87.3h10.4V76.9h10.4V66.5h52V62h-10.4V31.6l-35.7,8.9V62h-20.8v10.4
						h-31.2V118.5z"/>
				</g>
				<g>
					<polygon class="st1" points="132.7,187.5 132.7,173.4 122.3,173.4 122.3,163 111.9,163 111.9,152.6 101.5,152.6 101.5,196.6 
											"/>
					<path class="st1" d="M98.6,200.5v-50.8h16.3v10.4h10.4v10.4h10.4v19.2L98.6,200.5z M104.5,155.6v37.1l25.3-7.4v-8.9h-10.4V166
						H109v-10.4H104.5z"/>
				</g>
			</g>
			<g>
				<g>
					<path class="st1" d="M205.5,114h-41.6c-1.6,0-2.9-1.3-2.9-2.9V79.9c0-1.6,1.3-2.9,2.9-2.9h41.6c1.6,0,2.9,1.3,2.9,2.9V111
						C208.4,112.7,207.1,114,205.5,114z M166.8,108.1h35.7V82.8h-35.7V108.1z"/>
				</g>
				<g>
					<path class="st1" d="M184.7,166h-41.6c-1.6,0-2.9-1.3-2.9-2.9v-31.2c0-1.6,1.3-2.9,2.9-2.9h41.6c1.6,0,2.9,1.3,2.9,2.9V163
						C187.6,164.6,186.3,166,184.7,166z M146,160.1h35.7v-25.3H146V160.1z"/>
				</g>
				<g>
					<path class="st1" d="M91.1,186.8H49.5c-1.6,0-2.9-1.3-2.9-2.9v-31.2c0-1.6,1.3-2.9,2.9-2.9h41.6c1.6,0,2.9,1.3,2.9,2.9v31.2
						C94.1,185.4,92.7,186.8,91.1,186.8z M52.5,180.9h35.7v-25.3H52.5V180.9z"/>
				</g>
				<g>
					<path class="st1" d="M70.3,114H49.5c-1.6,0-2.9-1.3-2.9-2.9V90.2c0-1.6,1.3-2.9,2.9-2.9h20.8c1.6,0,2.9,1.3,2.9,2.9V111
						C73.3,112.7,71.9,114,70.3,114z M52.5,108.1h14.9V93.2H52.5V108.1z"/>
				</g>
				<g>
					<path class="st1" d="M184.7,114c-1.6,0-2.9-1.3-2.9-2.9V79.9c0-1.6,1.3-2.9,2.9-2.9c1.6,0,2.9,1.3,2.9,2.9V111
						C187.6,112.7,186.3,114,184.7,114z"/>
				</g>
				<g>
					<path class="st1" d="M163.9,166c-1.6,0-2.9-1.3-2.9-2.9v-31.2c0-1.6,1.3-2.9,2.9-2.9c1.6,0,2.9,1.3,2.9,2.9V163
						C166.8,164.6,165.5,166,163.9,166z"/>
				</g>
				<g>
					<path class="st1" d="M70.3,186.8c-1.6,0-2.9-1.3-2.9-2.9v-31.2c0-1.6,1.3-2.9,2.9-2.9s2.9,1.3,2.9,2.9v31.2
						C73.3,185.4,71.9,186.8,70.3,186.8z"/>
				</g>
				<g>
					<path class="st1" d="M59.9,114c-1.6,0-2.9-1.3-2.9-2.9V90.2c0-1.6,1.3-2.9,2.9-2.9c1.6,0,2.9,1.3,2.9,2.9V111
						C62.9,112.7,61.5,114,59.9,114z"/>
				</g>
			</g>
		</g>
	</g>
</g>
</svg>
