<?xml version="1.0" encoding="utf-8"?>
<!-- Generator: Adobe Illustrator 26.2.1, SVG Export Plug-In . SVG Version: 6.00 Build 0)  -->
<svg version="1.1" id="Camada_1" xmlns="http://www.w3.org/2000/svg" xmlns:xlink="http://www.w3.org/1999/xlink" x="0px" y="0px"
	 viewBox="0 0 255 419" style="enable-background:new 0 0 255 419;" xml:space="preserve">
<style type="text/css">
	.st0{fill:#FFFFFF;}
	.st1{clip-path:url(#SVGID_00000165950232804119925410000006331817129853159830_);}
</style>
<g>
	<g>
		<g>
			<path d="M41,216.2L41,216.2l70.7,192c5.1,13.9,24.7,13.9,29.9,0.1L214,216.2h0c-22.3,21.8-52.8,35.3-86.5,35.3S63.3,238,41,216.2
				z"/>
		</g>
	</g>
	<g>
		<circle cx="127.5" cy="127.9" r="123.6"/>
		<path class="st0" d="M127.5,255.4C57.2,255.4,0,198.2,0,127.9S57.2,0.4,127.5,0.4S255,57.6,255,127.9S197.8,255.4,127.5,255.4z
			 M127.5,8.3C61.5,8.3,7.8,61.9,7.8,127.9s53.7,119.7,119.7,119.7s119.7-53.7,119.7-119.7S193.5,8.3,127.5,8.3z"/>
	</g>
	<g>
		<defs>
			<circle id="SVGID_1_" cx="127.5" cy="127.9" r="123.6"/>
		</defs>
		<clipPath id="SVGID_00000178923442734847474790000001982957802658190987_">
			<use xlink:href="#SVGID_1_"  style="overflow:visible;"/>
		</clipPath>
		<g style="clip-path:url(#SVGID_00000178923442734847474790000001982957802658190987_);">
			<g>
				<path class="st0" d="M149.4,270.6c-2.2,0-3.9-1.8-3.9-3.9v-29.3c0-1,0.2-2,0.7-2.9l6.8-13.6v-18.7l-18-6
					c-2.6-0.9-4.4-3.3-4.4-6.1V162c0-1-0.4-1.9-1.1-2.6c-0.7-0.7-1.7-1-2.7-1c-1.8,0.1-3.3,1.8-3.3,3.8v44.6c0,2.8-1.8,5.2-4.4,6.1
					c-2.6,0.9-5.5,0-7.2-2.2l-4.3-5.7c0-0.1-0.1-0.1-0.1-0.2c-0.7-1.1-2-1.7-3.3-1.6c-1.6,0.2-3,1.5-3.1,3.1
					c-0.1,1.1,0.2,1.9,0.6,2.4c0.1,0.1,0.1,0.2,0.2,0.3l13.4,25.2c0.5,0.9,0.8,2,0.8,3v29.3c0,2.2-1.8,3.9-3.9,3.9
					c-2.2,0-3.9-1.8-3.9-3.9v-28.9L95,213c-1.4-2.2-2-4.8-1.7-7.5c0.6-5.3,4.9-9.5,10.2-10c4.2-0.4,8.2,1.5,10.6,4.9l1.6,2.2v-40.3
					c0-6.1,4.7-11.2,10.6-11.6c3.1-0.2,6.3,0.9,8.5,3.1c2.3,2.1,3.6,5.2,3.6,8.3v27.1l18,6c2.6,0.9,4.4,3.3,4.4,6.1v20
					c0,1-0.2,2-0.7,2.9l-6.8,13.6v29C153.3,268.8,151.6,270.6,149.4,270.6z"/>
			</g>
			<g>
				<path class="st0" d="M111.1,181.8c-1,0-2-0.4-2.8-1.1c-5-5-7.7-11.6-7.7-18.6c0-14.5,11.8-26.3,26.3-26.3
					c14.5,0,26.3,11.8,26.3,26.3c0,7-2.7,13.7-7.7,18.6c-1.5,1.5-4,1.5-5.5,0c-1.5-1.5-1.5-4,0-5.5c3.5-3.5,5.4-8.1,5.4-13.1
					c0-10.2-8.3-18.5-18.5-18.5s-18.5,8.3-18.5,18.5c0,4.9,1.9,9.6,5.4,13.1c1.5,1.5,1.5,4,0,5.5
					C113.1,181.4,112.1,181.8,111.1,181.8z"/>
			</g>
			<g>
				<path class="st0" d="M153.4,192.4c-1,0-2-0.4-2.8-1.1c-1.5-1.5-1.5-4,0-5.5c6.3-6.3,9.8-14.7,9.8-23.7c0-18.4-15-33.5-33.5-33.5
					c-18.4,0-33.5,15-33.5,33.5c0,8.9,3.5,17.3,9.8,23.7c1.5,1.5,1.5,4,0,5.5c-1.5,1.5-4,1.5-5.5,0c-7.8-7.8-12.1-18.2-12.1-29.2
					c0-22.8,18.5-41.3,41.3-41.3s41.3,18.5,41.3,41.3c0,11-4.3,21.4-12.1,29.2C155.4,192,154.4,192.4,153.4,192.4z"/>
			</g>
			<g>
				<path class="st0" d="M188.3,53.3H73.6c-2.2,0-3.9-1.8-3.9-3.9s1.8-3.9,3.9-3.9h114.7c2.2,0,3.9,1.8,3.9,3.9
					S190.4,53.3,188.3,53.3z"/>
			</g>
			<g>
				<path class="st0" d="M158.8,110.7c0,16.9,13.7,30.6,30.6,30.6s30.6-13.7,30.6-30.6H158.8z"/>
				<path class="st0" d="M189.4,145.2c-19.1,0-34.6-15.5-34.6-34.6c0-2.2,1.8-3.9,3.9-3.9h61.3c2.2,0,3.9,1.8,3.9,3.9
					C224,129.7,208.5,145.2,189.4,145.2z M163,114.6c1.9,12.9,13,22.8,26.4,22.8s24.5-9.9,26.4-22.8H163z"/>
			</g>
			<g>
				<path class="st0" d="M34.9,111.2c0,16.6,13.7,30.1,30.6,30.1s30.6-13.5,30.6-30.1H34.9z"/>
				<path class="st0" d="M65.6,145.2c-19.1,0-34.6-15.3-34.6-34c0-2.2,1.8-3.9,3.9-3.9h61.3c2.2,0,3.9,1.8,3.9,3.9
					C100.1,130,84.6,145.2,65.6,145.2z M39.2,115.1c1.9,12.6,13,22.2,26.4,22.2S90,127.7,92,115.1H39.2z"/>
			</g>
			<g>
				<path class="st0" d="M96.2,114.6c-1.4,0-2.8-0.8-3.5-2.2L65.6,58.2l-27.1,54.2c-1,1.9-3.3,2.7-5.3,1.8c-1.9-1-2.7-3.3-1.8-5.3
					L62,47.7c0.7-1.3,2-2.2,3.5-2.2c1.5,0,2.8,0.8,3.5,2.2l30.6,61.3c1,1.9,0.2,4.3-1.8,5.3C97.4,114.5,96.8,114.6,96.2,114.6z"/>
			</g>
			<g>
				<path class="st0" d="M220.1,114.6c-1.4,0-2.8-0.8-3.5-2.2l-27.1-54.2l-27.1,54.2c-1,1.9-3.3,2.7-5.3,1.8c-1.9-1-2.7-3.3-1.8-5.3
					l30.6-61.3c0.7-1.3,2-2.2,3.5-2.2s2.8,0.8,3.5,2.2l30.6,61.3c1,1.9,0.2,4.3-1.8,5.3C221.2,114.5,220.6,114.6,220.1,114.6z"/>
			</g>
			<g>
				<circle class="st0" cx="65.6" cy="49.4" r="8.4"/>
				<path class="st0" d="M65.6,61.7c-6.8,0-12.3-5.5-12.3-12.3s5.5-12.3,12.3-12.3s12.3,5.5,12.3,12.3S72.3,61.7,65.6,61.7z
					 M65.6,45c-2.4,0-4.4,2-4.4,4.4c0,2.4,2,4.4,4.4,4.4c2.4,0,4.4-2,4.4-4.4C70,47,68,45,65.6,45z"/>
			</g>
			<g>
				<circle class="st0" cx="189.4" cy="49.4" r="8.4"/>
				<path class="st0" d="M189.4,61.7c-6.8,0-12.3-5.5-12.3-12.3s5.5-12.3,12.3-12.3s12.3,5.5,12.3,12.3S196.2,61.7,189.4,61.7z
					 M189.4,45c-2.4,0-4.4,2-4.4,4.4c0,2.4,2,4.4,4.4,4.4s4.4-2,4.4-4.4C193.9,47,191.9,45,189.4,45z"/>
			</g>
			<g>
				<g>
					<path class="st0" d="M127,41.1c-3.1,0-5.6,2.1-5.6,4.7v79.3c1.8-0.3,3.7-0.4,5.6-0.4c1.9,0,3.8,0.1,5.6,0.4V45.7
						C132.6,43.2,130.1,41.1,127,41.1z"/>
					<path class="st0" d="M121.4,129c-0.9,0-1.8-0.3-2.6-1c-0.9-0.7-1.4-1.8-1.4-3V45.7c0-4.7,4.3-8.6,9.5-8.6
						c5.2,0,9.5,3.9,9.5,8.6v79.3c0,1.1-0.5,2.2-1.4,3c-0.9,0.7-2,1.1-3.1,0.9c-3.3-0.5-6.7-0.5-10,0C121.8,129,121.6,129,121.4,129
						z M127,120.7c0.5,0,1.1,0,1.6,0v-75c0-0.1-0.5-0.7-1.6-0.7c-1.1,0-1.6,0.6-1.6,0.7v75C125.9,120.7,126.4,120.7,127,120.7z"/>
				</g>
			</g>
		</g>
	</g>
</g>
</svg>
