<svg xmlns="http://www.w3.org/2000/svg" xmlns:xlink="http://www.w3.org/1999/xlink" width="1080" zoomAndPan="magnify" viewBox="0 0 810 809.999993" height="1080" preserveAspectRatio="xMidYMid meet" version="1.0"><defs><clipPath id="09fbcb5837"><path d="M 124.351562 104.558594 L 746.851562 104.558594 L 746.851562 705.308594 L 124.351562 705.308594 Z M 124.351562 104.558594 " clip-rule="nonzero"/></clipPath></defs><g clip-path="url(#09fbcb5837)"><path fill="#004aad" d="M 191.832031 216.429688 L 191.832031 272.035156 C 191.832031 277.558594 196.3125 282.039062 201.835938 282.039062 L 284.835938 282.039062 C 290.355469 282.039062 294.835938 277.558594 294.835938 272.035156 L 294.835938 216.414062 L 304.136719 216.414062 C 307.46875 216.414062 310.734375 214.734375 312.617188 211.699219 C 315.523438 207.015625 314.09375 200.859375 309.410156 197.949219 L 248.734375 159.980469 C 245.589844 157.972656 241.453125 157.800781 238.078125 159.902344 L 177.773438 197.636719 C 174.660156 199.332031 172.53125 202.632812 172.53125 206.425781 C 172.53125 211.949219 177.011719 216.429688 182.53125 216.429688 Z M 274.832031 262.050781 L 211.835938 262.050781 L 211.835938 216.445312 L 274.832031 216.445312 Z M 243.335938 180.167969 L 269.34375 196.441406 L 217.34375 196.441406 Z M 672.195312 526.542969 C 676.097656 530.429688 676.113281 536.746094 672.242188 540.636719 L 593.96875 619 C 590.082031 622.902344 583.765625 622.917969 579.878906 619.046875 C 579.472656 618.640625 579.097656 618.207031 578.789062 617.753906 L 556.53125 586.613281 C 553.339844 582.136719 554.382812 575.898438 558.863281 572.707031 C 563.34375 569.519531 569.578125 570.5625 572.769531 575.042969 L 588.167969 596.601562 L 658.101562 526.574219 C 661.976562 522.667969 668.289062 522.652344 672.195312 526.542969 Z M 708.046875 479.054688 C 684.203125 455.039062 651.257812 440.167969 614.890625 440.167969 C 614.488281 440.167969 614.082031 440.199219 613.675781 440.199219 L 613.644531 262.035156 C 613.644531 261.988281 613.628906 261.957031 613.628906 261.910156 C 613.628906 261.351562 613.570312 260.773438 613.476562 260.230469 C 613.460938 260.183594 613.445312 260.136719 613.445312 260.074219 C 613.335938 259.5 613.179688 258.9375 612.960938 258.394531 C 612.945312 258.363281 612.929688 258.332031 612.914062 258.300781 C 612.683594 257.742188 612.417969 257.195312 612.089844 256.667969 C 612.074219 256.652344 612.074219 256.636719 612.058594 256.621094 C 611.71875 256.09375 611.3125 255.578125 610.863281 255.113281 L 470.183594 108.214844 C 468.351562 105.988281 465.566406 104.558594 462.453125 104.558594 L 134.453125 104.558594 C 128.929688 104.558594 124.449219 109.039062 124.449219 114.558594 L 124.449219 695.40625 C 124.449219 700.925781 128.929688 705.40625 134.453125 705.40625 L 603.691406 705.40625 C 604.546875 705.40625 605.371094 705.28125 606.164062 705.078125 C 609.058594 705.265625 611.964844 705.40625 614.90625 705.40625 C 651.273438 705.40625 684.203125 690.535156 708.0625 666.519531 C 731.910156 642.503906 746.65625 609.355469 746.65625 572.785156 C 746.640625 536.21875 731.894531 503.070312 708.046875 479.054688 Z M 472.457031 139.417969 L 580.3125 252.046875 L 472.457031 252.046875 Z M 144.453125 685.402344 L 144.453125 124.5625 L 452.453125 124.5625 L 452.453125 262.050781 C 452.453125 267.570312 456.933594 272.050781 462.453125 272.050781 L 593.691406 272.019531 L 593.691406 441.910156 C 577.527344 444.554688 562.347656 450.167969 548.722656 458.164062 L 189.375 458.164062 C 183.855469 458.164062 179.375 462.644531 179.375 468.164062 C 179.375 473.6875 183.855469 478.167969 189.375 478.167969 L 522.667969 478.167969 C 522.371094 478.460938 522.042969 478.742188 521.75 479.054688 C 497.902344 503.070312 483.15625 536.21875 483.15625 572.785156 C 483.15625 609.355469 497.902344 642.503906 521.75 666.519531 C 528.875 673.691406 536.804688 680.019531 545.390625 685.402344 Z M 693.910156 652.457031 C 673.703125 672.804688 645.765625 685.402344 614.890625 685.402344 C 584.03125 685.402344 556.078125 672.820312 535.871094 652.457031 C 515.652344 632.097656 503.144531 603.925781 503.144531 572.785156 C 503.144531 541.644531 515.652344 513.476562 535.871094 493.117188 C 556.078125 472.769531 584.015625 460.171875 614.890625 460.171875 C 645.75 460.171875 673.703125 472.753906 693.910156 493.117188 C 714.128906 513.476562 726.636719 541.644531 726.636719 572.785156 C 726.636719 603.925781 714.128906 632.097656 693.910156 652.457031 Z M 189.375 331.457031 L 548.769531 331.457031 C 554.289062 331.457031 558.769531 335.933594 558.769531 341.457031 C 558.769531 346.980469 554.289062 351.457031 548.769531 351.457031 L 189.375 351.457031 C 183.855469 351.457031 179.375 346.980469 179.375 341.457031 C 179.375 335.933594 183.855469 331.457031 189.375 331.457031 Z M 437.226562 594.890625 C 437.226562 600.410156 432.746094 604.890625 427.222656 604.890625 L 189.375 604.890625 C 183.855469 604.890625 179.375 600.410156 179.375 594.890625 C 179.375 589.367188 183.855469 584.886719 189.375 584.886719 L 427.238281 584.886719 C 432.761719 584.886719 437.226562 589.367188 437.226562 594.890625 Z M 558.753906 404.8125 C 558.753906 410.332031 554.273438 414.8125 548.753906 414.8125 L 189.375 414.8125 C 183.855469 414.8125 179.375 410.332031 179.375 404.8125 C 179.375 399.289062 183.855469 394.808594 189.375 394.808594 L 548.769531 394.808594 C 554.273438 394.824219 558.753906 399.289062 558.753906 404.8125 Z M 437.226562 531.535156 C 437.226562 537.058594 432.746094 541.539062 427.222656 541.539062 L 189.375 541.539062 C 183.855469 541.539062 179.375 537.058594 179.375 531.535156 C 179.375 526.011719 183.855469 521.535156 189.375 521.535156 L 427.238281 521.535156 C 432.761719 521.535156 437.226562 526.011719 437.226562 531.535156 Z M 437.226562 531.535156 " fill-opacity="1" fill-rule="nonzero"/></g></svg>