<?xml version="1.0" encoding="utf-8"?>
<!-- Generator: Adobe Illustrator 26.2.1, SVG Export Plug-In . SVG Version: 6.00 Build 0)  -->
<svg version="1.1" id="Camada_1" xmlns="http://www.w3.org/2000/svg" xmlns:xlink="http://www.w3.org/1999/xlink" x="0px" y="0px"
	 viewBox="0 0 255 419" style="enable-background:new 0 0 255 419;" xml:space="preserve">
<style type="text/css">
	.st0{fill:#FF0000;}
	.st1{fill:#FFFFFF;}
</style>
<g>
	<g>
		<g>
			<path class="st0" d="M41,216.2L41,216.2l70.7,192c5.1,13.9,24.7,13.9,29.9,0.1L214,216.2h0c-22.3,21.8-52.8,35.3-86.5,35.3
				S63.3,238,41,216.2z"/>
		</g>
	</g>
	<g>
		<circle class="st0" cx="127.5" cy="127.9" r="123.6"/>
		<path class="st1" d="M127.5,255.4C57.2,255.4,0,198.2,0,127.9S57.2,0.4,127.5,0.4S255,57.6,255,127.9S197.8,255.4,127.5,255.4z
			 M127.5,8.3C61.5,8.3,7.8,61.9,7.8,127.9s53.7,119.7,119.7,119.7s119.7-53.7,119.7-119.7S193.5,8.3,127.5,8.3z"/>
	</g>
	<g>
		<g>
			<path class="st1" d="M155.5,189.6l-23.6,29.5c-2.2,2.8-6.5,2.8-8.7,0L54,132.7c-16.7-20.8-13.6-51.6,7.4-68
				c6.3-4.9,13.6-8,21.3-8c19,0,35.2,19.8,41.7,32.6c1.3,2.5,4.9,2.5,6.1,0c6.5-12.8,22.7-32.6,41.7-32.6c7.7,0,15,3,21.3,8
				c21,16.4,24.1,47.1,7.4,68l-17.4,21.8"/>
			<path class="st1" d="M127.5,225.2c-2.9,0-5.6-1.3-7.4-3.6L51,135.2c-8.9-11.1-12.9-25-11.2-39.1c1.6-13.8,8.5-26,19.3-34.4
				c7.4-5.8,15.6-8.8,23.7-8.8c21.3,0,38.3,21.7,44.8,33.9c6.5-12.2,23.5-33.9,44.8-33.9c8.1,0,16.3,3.1,23.7,8.8
				c10.8,8.4,17.6,20.6,19.3,34.4c1.7,14.1-2.3,28-11.2,39.1L186.6,157c-1.4,1.7-3.8,2-5.5,0.6c-1.7-1.4-2-3.8-0.6-5.5l17.4-21.8
				c7.6-9.5,11-21.3,9.5-33.3c-1.4-11.7-7.2-22-16.3-29.1c-6.1-4.8-12.5-7.2-18.9-7.2c-16.7,0-32,18.2-38.2,30.4
				c-1.3,2.5-3.8,4-6.6,4s-5.3-1.5-6.6-4c-6.2-12.2-21.5-30.4-38.2-30.4c-6.5,0-12.8,2.4-18.9,7.2C54.7,75,48.9,85.3,47.5,97
				c-1.4,12,2,23.8,9.5,33.3l69.1,86.4c0.4,0.5,1,0.6,1.3,0.6s0.9-0.1,1.3-0.6l23.6-29.5c1.4-1.7,3.8-2,5.5-0.6
				c1.7,1.4,2,3.8,0.6,5.5l-23.6,29.5C133.1,223.9,130.4,225.2,127.5,225.2z"/>
		</g>
		<g>
			<g>
				<path class="st0" d="M155.5,214.4c-2.2,0-3.9-1.8-3.9-3.9v-29.6h-29.6c-2.2,0-3.9-1.8-3.9-3.9v-22.4c0-2.2,1.8-3.9,3.9-3.9h29.6
					V121c0-2.2,1.8-3.9,3.9-3.9h22.4c2.2,0,3.9,1.8,3.9,3.9v29.6h29.6c2.2,0,3.9,1.8,3.9,3.9v22.4c0,2.2-1.8,3.9-3.9,3.9h-29.6v29.6
					c0,2.2-1.8,3.9-3.9,3.9H155.5z"/>
			</g>
			<g>
				<path class="st1" d="M177.8,121v33.6h33.6v22.4h-33.6v33.6h-22.4v-33.6h-33.6v-22.4h33.6V121H177.8 M177.8,113.1h-22.4
					c-4.3,0-7.8,3.5-7.8,7.8v25.7h-25.7c-4.3,0-7.8,3.5-7.8,7.8v22.4c0,4.3,3.5,7.8,7.8,7.8h25.7v25.7c0,4.3,3.5,7.8,7.8,7.8h22.4
					c4.3,0,7.8-3.5,7.8-7.8v-25.7h25.7c4.3,0,7.8-3.5,7.8-7.8v-22.4c0-4.3-3.5-7.8-7.8-7.8h-25.7V121
					C185.7,116.6,182.2,113.1,177.8,113.1L177.8,113.1z"/>
			</g>
		</g>
	</g>
</g>
</svg>
